<svg width="45" height="23" viewBox="0 0 45 23" fill="none" xmlns="http://www.w3.org/2000/svg">
<g clip-path="url(#clip0_2013_285)">
<path d="M22.9804 2.9757H24.7706V6.17278H25.4134V2.39936H22.3389V6.17278H22.9817V2.9757H22.9804Z" fill="white"/>
<path d="M30.9196 6.23585C31.991 6.23585 32.7023 5.42576 32.7023 4.28792C32.7023 3.15008 31.991 2.33999 30.9196 2.33999C29.8483 2.33999 29.137 3.15008 29.137 4.28792C29.137 5.42576 29.8483 6.23585 30.9196 6.23585ZM30.9196 2.92252C31.6247 2.92252 32.0458 3.49144 32.0458 4.28792C32.0458 5.08441 31.6173 5.65333 30.9196 5.65333C30.222 5.65333 29.7997 5.08441 29.7997 4.28792C29.7922 3.49267 30.2145 2.92252 30.9196 2.92252Z" fill="white"/>
<path d="M24.3483 16.0275L23.1324 13.1049H22.3376V16.8784H22.9531V14.1475L24.0867 16.8648H24.6049L25.7311 14.1475V16.8784H26.339V13.1049H25.5579L24.3483 16.0275Z" fill="white"/>
<path d="M36.9255 4.43757L38.4528 6.17278H39.2613L37.5683 4.20382L39.2264 2.39936H38.4453L36.9255 4.03191V2.39936H36.2827V6.17278H36.9255V4.43757Z" fill="white"/>
<path d="M35.7109 5.59644H33.8796V4.5192H35.6075V3.96389H33.8796V2.9757H35.7109V2.39936H33.2368V6.17278H35.7109V5.59644Z" fill="white"/>
<path d="M31.3768 10.2208H32.1305C32.9315 10.2208 33.4224 9.66545 33.4224 8.98646C33.4224 8.30746 32.9527 7.75215 32.1093 7.75215H30.7278V11.5256H31.3706V10.222H31.3781L31.3768 10.2208ZM31.3768 8.31365H32.0545C32.5242 8.31365 32.7795 8.58821 32.7795 8.98646C32.7795 9.3847 32.5167 9.66545 32.0545 9.66545H31.3768V8.31365Z" fill="white"/>
<path d="M42.3669 2.39936H39.3335V2.9757H40.5294V6.17278H41.1722V2.9757H42.3682V2.39936H42.3669Z" fill="white"/>
<path d="M40.0985 14.9045C40.3402 14.8018 40.5956 14.5334 40.5956 14.0882C40.5956 13.539 40.1944 13.1074 39.4208 13.1074H37.9558V16.8808H39.4694C40.2505 16.8808 40.7413 16.4344 40.7413 15.811C40.7413 15.2557 40.3751 14.9811 40.0985 14.9057V14.9045ZM38.5986 13.6491H39.3311C39.7186 13.6491 39.9465 13.8408 39.9465 14.1636C39.9465 14.4518 39.7597 14.6781 39.3598 14.6781H38.5999V13.6491H38.5986ZM39.3996 16.3243H38.5986V15.1988H39.4283C39.8357 15.1988 40.0923 15.4115 40.0923 15.7615C40.0848 16.1252 39.8095 16.3243 39.4009 16.3243H39.3996Z" fill="white"/>
<path d="M37.5882 13.1049H36.8071L35.2798 14.7375V13.1049H34.637V16.8784H35.2798V15.1432L36.8071 16.8784H37.623L35.9226 14.9094L37.5882 13.1049Z" fill="white"/>
<path d="M44.9556 13.1049H44.3127V16.8784H44.9556V13.1049Z" fill="white"/>
<path d="M24.3483 10.6734L23.1324 7.75091H22.3376V11.5243H22.9531V8.79351L24.0867 11.5107H24.6049L25.7311 8.79351V11.5243H26.339V7.75091H25.5579L24.3483 10.6734Z" fill="white"/>
<path d="M36.1443 11.5243H36.822L35.4056 7.75091H34.7354L33.3252 11.5243H34.0029L34.3206 10.6326H35.8204L36.1456 11.5243H36.1443ZM34.5136 10.0773L35.0668 8.51277L35.6199 10.0773H34.5149H34.5136Z" fill="white"/>
<path d="M42.6185 14.4419H41.886V13.1037H41.2432V16.8771H42.6322C43.427 16.8771 43.924 16.3354 43.924 15.6564C43.924 14.9774 43.4469 14.4419 42.6185 14.4419ZM42.5562 16.3144H41.886V15.0046H42.5562C43.0121 15.0046 43.275 15.2582 43.275 15.6564C43.275 16.0547 43.0059 16.3156 42.5562 16.3156V16.3144Z" fill="white"/>
<path d="M28.8205 3.6349C28.8205 2.94849 28.3509 2.40059 27.5075 2.40059H26.126V6.17401H26.7688V4.87045H27.5225C28.331 4.87045 28.8218 4.31513 28.8218 3.63614L28.8205 3.6349ZM26.7688 4.31389V2.96209H27.4465C27.9161 2.96209 28.1715 3.23666 28.1715 3.6349C28.1715 4.03314 27.9087 4.31389 27.4465 4.31389H26.7688Z" fill="white"/>
<path d="M32.5331 16.3552C31.8691 16.3552 31.448 15.7863 31.448 14.9898C31.448 14.1933 31.8766 13.6244 32.5331 13.6244C33.0862 13.6244 33.3827 13.9534 33.4861 14.338H34.1289C34.018 13.6318 33.4798 13.0419 32.5331 13.0419C31.5028 13.0419 30.7915 13.8445 30.7915 14.9898C30.7915 16.1351 31.524 16.9377 32.5331 16.9377C33.5421 16.9377 34.0741 16.2179 34.1426 15.6342H33.4935C33.4387 15.957 33.1273 16.354 32.5331 16.354V16.3552Z" fill="white"/>
<path d="M28.4594 11.0086C27.8577 11.0086 27.5749 10.6178 27.4914 10.3432H26.8486C26.9321 10.8713 27.4017 11.5849 28.4519 11.5849C29.4473 11.5849 30.1997 10.8577 30.1997 9.637C30.1997 8.4163 29.4747 7.68907 28.4582 7.68907C27.5251 7.68907 26.9794 8.28644 26.8623 8.9308H27.4977C27.6085 8.58821 27.905 8.26541 28.4582 8.26541C29.0113 8.26541 29.4398 8.64263 29.5295 9.32904H28.0234V9.87818H29.537C29.4747 10.5844 29.0599 11.0098 28.4594 11.0098V11.0086Z" fill="white"/>
<path d="M28.655 13.0419C27.5836 13.0419 26.8723 13.852 26.8723 14.9898C26.8723 16.1276 27.5836 16.9377 28.655 16.9377C29.7263 16.9377 30.4377 16.1276 30.4377 14.9898C30.4377 13.852 29.7263 13.0419 28.655 13.0419ZM28.655 16.3552C27.9499 16.3552 27.5351 15.7863 27.5351 14.9898C27.5351 14.1933 27.9561 13.6244 28.655 13.6244C29.3539 13.6244 29.7812 14.1933 29.7812 14.9898C29.7812 15.7863 29.3601 16.3552 28.655 16.3552Z" fill="white"/>
<path d="M1.41642 14.5668L1.89977 14.4085C1.8026 14.1278 1.94088 13.8866 2.12775 13.805C2.19626 13.7703 2.27225 13.7431 2.35572 13.7159C2.79049 13.5576 3.37849 13.3449 3.66875 12.2206C3.82073 11.6171 4.06241 11.3351 4.31779 11.2127C4.17328 11.7408 4.23432 12.2417 4.29038 12.6671C4.32526 12.9479 4.3589 13.2162 4.32526 13.4216C4.27045 13.7369 4.035 14.0115 3.62016 14.265L3.53047 14.3195L3.50306 14.4221C3.50306 14.4221 3.0957 15.8691 2.88143 16.6174L2.86025 16.6928L2.88143 16.7683C2.90261 16.8573 2.93001 16.9402 2.94995 17.0218C3.06082 17.4201 3.15051 17.7354 3.15051 18.2772H3.70363C3.70363 17.66 3.60023 17.2964 3.48313 16.8771C3.46943 16.8227 3.44825 16.7609 3.43454 16.7052C3.53171 16.3762 3.65504 15.9297 3.76592 15.5327C3.9316 15.4919 4.08358 15.4499 4.22186 15.4165C4.95437 15.2384 5.32062 15.1419 6.04565 14.7511C6.6187 14.4357 7.04724 13.894 7.22663 13.633C7.70375 13.6739 9.05789 13.7629 10.0047 13.5848C10.8892 13.4203 11.4149 13.2076 11.6628 13.0839L12.5884 14.3392L12.5199 14.3875L12.1947 14.6348L12.3741 14.855C12.3816 14.8624 12.8026 15.3769 13.0169 15.6577C13.058 15.7195 13.2661 16.0287 12.9683 16.3366C12.6992 16.6174 12.1386 16.6731 11.821 16.4467C11.6964 16.3577 11.6204 16.2414 11.5992 16.0967C11.5781 15.9594 11.6129 15.8085 11.6889 15.7059C11.9717 15.3349 12.034 14.9106 11.8621 14.5606C11.7176 14.2725 11.4336 14.1005 11.0947 14.1005C10.8941 14.1005 10.6525 14.1005 10.3697 14.108C9.65835 14.1154 8.76639 14.129 7.87567 14.1005L7.37861 14.0869L7.62776 14.5124C7.62776 14.5198 7.80092 14.8006 7.96661 15.1295C7.52437 15.0195 6.88155 14.9576 6.10047 15.1506C5.25709 15.3633 4.38007 16.0559 4.30408 17.1195C4.2692 17.566 4.40125 17.9704 4.65663 18.2648C4.88461 18.5258 5.19605 18.6692 5.55482 18.6964H5.63829C6.03942 18.6964 6.40568 18.5245 6.63365 18.2227C6.85539 17.9346 6.91644 17.5784 6.80681 17.242C6.7657 17.1257 6.71711 17.0292 6.65483 16.9402C7.02731 16.8858 7.25653 17.0292 7.33252 17.174C7.50568 17.4967 7.17306 17.8257 7.15936 17.8393L6.9999 17.9902L7.7187 19.1837H9.84646V18.6346H9.12143C9.06661 18.5802 8.98315 18.4911 8.92086 18.36C8.87227 18.2636 8.734 17.942 8.94827 17.7837C9.09277 17.6736 9.23105 17.6736 9.54997 17.7973C9.75053 17.8727 9.92369 17.9618 10.1093 18.0582C10.579 18.2982 11.0623 18.5517 11.9543 18.5728L12.2034 19.1837H14.4221V18.6346H13.489L13.4268 18.3947C13.8765 18.2363 14.2701 17.9902 14.5604 17.6674C15.0301 17.1455 15.2443 16.4467 15.182 15.6502C15.258 15.5674 15.3888 15.4375 15.4997 15.3274L15.7763 15.0603L15.1272 14.7375C14.5741 14.4703 14.305 14.223 14.0696 13.4129L13.9176 12.844L13.3919 13.0295C13.0804 13.1396 12.8662 13.4141 12.8188 13.7221L12.2109 12.8984C12.6806 12.891 13.144 12.7129 13.3582 12.5892C14.2639 12.0611 14.7336 11.794 14.9678 11.6567C15.334 12.0957 15.9631 12.912 16.0877 13.2892C16.1425 13.4611 16.1562 14.0993 16.1425 14.5037L16.6956 14.5173C16.7031 14.3392 16.7168 13.4475 16.6122 13.1173C16.4054 12.5002 15.3614 11.2646 15.2368 11.1273L15.1123 10.9764L15.0986 10.9418C14.7049 11.1409 14.2826 11.1953 13.9724 11.1953C14.1319 10.9826 14.2627 10.7081 14.3312 10.358L15.6716 9.63824C15.9893 9.99443 16.5212 10.6326 16.6458 10.9628C16.7143 11.1483 16.7567 11.8273 16.7704 12.2528L17.3235 12.2392C17.316 12.0537 17.2886 11.1137 17.1715 10.7786C16.9647 10.2158 16.0453 9.22144 15.9419 9.10519L15.7974 8.94688L14.3673 9.71492C14.2701 9.0149 13.8005 8.43856 13.4417 7.99332C13.3582 7.89067 13.2823 7.7942 13.22 7.71257C13.1029 7.54808 12.9646 7.31433 12.84 7.09542C13.0057 7.11644 13.1926 7.10902 13.4068 7.0546C13.5451 7.08181 13.9388 7.21909 14.2502 7.34896L14.4159 7.41698L14.7062 7.14241C15.0649 6.79983 15.0724 6.22349 14.7273 5.86606L13.6635 4.78882V4.38439L13.5115 4.30895C13.443 4.27432 12.855 3.99357 12.5099 3.93791C12.0265 3.84144 11.1969 3.82784 10.5266 4.52786L9.84272 4.33616C9.88383 4.09622 9.90501 3.97254 9.91871 3.82908L9.93241 3.71282C10.0495 2.92375 9.57986 2.37462 9.22731 2.10748C9.33071 1.85394 9.37182 1.4829 9.07533 1.18855C8.82618 0.941192 8.52222 0.886773 8.07374 1.01045C7.81089 1.07847 7.58292 1.25781 7.34124 1.4359C7.24407 1.51135 7.14067 1.58679 7.03727 1.65481C6.48416 2.03203 6.02198 1.67584 5.79401 1.4359L5.39288 1.82054C5.73795 2.19158 6.14656 2.38328 6.54645 2.38328C6.823 2.38328 7.09209 2.29423 7.35494 2.12232C7.47204 2.03945 7.58292 1.95783 7.68009 1.88238C7.88688 1.72407 8.06004 1.59421 8.2195 1.5534C8.55087 1.46435 8.63433 1.53979 8.68915 1.59421C8.84113 1.7451 8.68915 1.98504 8.66797 2.00606C8.37148 2.12232 7.60409 2.44512 7.5007 3.35044C7.47329 3.55575 7.45959 3.79692 7.44588 3.97502C7.09333 3.9676 6.4854 4.02325 5.93229 4.38687L3.86309 1.58061L3.41337 1.90341L4.38755 3.228C4.28415 3.37147 3.98642 3.84515 4.16705 4.22237C4.28415 4.46973 4.64417 5.21056 4.80239 5.53955C4.48472 5.92418 3.60646 7.05584 3.14428 8.35199L2.99978 8.75641L3.42832 8.7156C4.07113 8.65376 4.36762 8.79846 4.68529 8.94935C4.81609 9.01119 4.94814 9.07303 5.10635 9.12126C5.68687 9.30678 6.10171 9.23752 6.46049 9.17568C6.50907 9.26473 6.56389 9.35378 6.61995 9.43664C6.50284 9.43664 6.37827 9.45025 6.25369 9.47746L6.21258 9.48488C5.93602 9.5393 5.66694 9.60114 5.39038 9.75944C5.18359 9.54672 4.78868 9.26597 4.16705 9.26597C3.1991 9.26597 2.50147 9.86952 2.23862 10.9332C2.00317 11.8941 1.76897 12.1675 1.57588 12.3876C1.48618 12.4903 1.38901 12.6003 1.3205 12.7586C1.03023 13.3832 1.10622 13.8841 1.35538 14.5767L1.41766 14.5693L1.41642 14.5668ZM12.9073 18.621H12.5684L12.541 18.5517C12.6581 18.5443 12.769 18.5307 12.8799 18.5109L12.9073 18.621ZM13.2112 14.5532L13.2387 14.4778C13.2524 14.4431 13.3769 14.1216 13.3558 13.8532C13.3483 13.7295 13.418 13.6058 13.5289 13.5514C13.8192 14.526 14.1991 14.876 14.8345 15.1914C14.766 15.2668 14.7037 15.3349 14.6688 15.3769L14.6065 15.466L14.6202 15.5686C14.6962 16.2612 14.5305 16.8511 14.1431 17.2766C13.9151 17.524 13.6174 17.7231 13.2661 17.8455L12.7752 17.9692C12.6307 17.9902 12.4787 18.0038 12.3255 18.01V18.0026H12.0627C11.233 18.0026 10.8119 17.7837 10.3634 17.5499C10.1766 17.4535 9.97602 17.3508 9.75552 17.2618C9.51384 17.1653 9.06412 16.9946 8.62935 17.3162C8.25562 17.5833 8.17963 18.078 8.43626 18.5789C8.44373 18.5864 8.44373 18.6 8.44996 18.6061H8.0426L7.70375 18.0372C7.91055 17.7627 8.07748 17.3236 7.83456 16.8845C7.62029 16.4937 7.12946 16.2872 6.59129 16.37C5.90737 16.4727 5.64452 16.8301 5.54735 17.1455C5.53365 17.1727 5.52617 17.2073 5.51994 17.242V17.2828C5.51994 17.4609 5.66445 17.6118 5.85131 17.6118C6.03818 17.6118 6.18268 17.4683 6.18268 17.2828C6.18268 17.2482 6.17521 17.2148 6.16898 17.1801C6.21757 17.2073 6.27238 17.2692 6.31349 17.3854C6.3683 17.5437 6.33467 17.7144 6.22379 17.8591C6.08552 18.0372 5.85754 18.1337 5.61587 18.1127C5.40907 18.0991 5.22843 18.0162 5.09763 17.8653C4.93817 17.6872 4.86218 17.4188 4.88336 17.1171C4.94565 16.2117 5.78155 15.7591 6.25868 15.6416C7.53059 15.3262 8.33909 15.7925 8.37273 15.8061L9.04294 16.2105L8.77386 15.4771C8.67669 15.2099 8.50478 14.8797 8.3665 14.6126C9.11271 14.6262 9.83774 14.6126 10.3983 14.6052C10.6811 14.5977 10.924 14.5977 11.1171 14.5977C11.2417 14.5977 11.3376 14.6522 11.3862 14.756C11.4485 14.8797 11.4485 15.0924 11.2691 15.325C11.1034 15.5451 11.0337 15.8469 11.076 16.1276C11.1171 16.4158 11.2766 16.6632 11.5183 16.8338C12.0639 17.2247 12.921 17.143 13.3844 16.6557C13.8192 16.1957 13.7432 15.6342 13.4741 15.2705C13.3433 15.0986 13.1427 14.8525 12.997 14.6732L13.2112 14.5495V14.5532ZM7.65642 4.53652L7.96785 4.59093L7.98156 4.27555C7.98156 4.26813 8.00274 3.78208 8.05008 3.41104C8.11859 2.8347 8.59572 2.62198 8.8511 2.51932C9.04419 2.66279 9.47273 3.04125 9.39051 3.63738L9.37681 3.75363C9.3494 3.93173 9.32822 4.08262 9.2597 4.48086L9.21112 4.72822L10.1791 5.00278C9.70195 5.84008 9.70942 6.88269 9.75801 7.6161C9.80659 8.33591 10.0271 8.99511 10.0408 9.02232L10.5665 8.85041C10.5665 8.84299 10.3597 8.22583 10.3111 7.58147C10.2625 6.86785 10.2563 5.83266 10.7608 5.11162C11.2517 4.42521 11.9219 4.37821 12.3915 4.45984C12.5647 4.48704 12.8824 4.61814 13.0892 4.71338V4.99412L14.305 6.23585C14.3673 6.30388 14.4084 6.39416 14.4022 6.48321C14.4022 6.57968 14.3611 6.66873 14.2988 6.73057L14.2714 6.75778C13.9886 6.6477 13.5663 6.49063 13.3732 6.48321H13.3321L13.291 6.49681C12.759 6.64028 12.4762 6.38056 12.4688 6.36695L12.1997 6.0862L12.0265 6.43621C11.9642 6.55989 11.958 6.62173 12.262 7.20425C12.3454 7.36256 12.5585 7.75957 12.7528 8.02795C12.8213 8.12442 12.9048 8.22707 12.9945 8.32972C13.4093 8.8368 13.9201 9.4688 13.7955 10.1886C13.7195 10.6413 13.5127 10.9084 13.2362 11.1694L12.9322 11.4501L13.3122 11.622C13.4018 11.6629 13.5538 11.6975 13.7407 11.7185C13.5538 11.8286 13.3333 11.9523 13.078 12.1031C12.8911 12.2058 12.0689 12.5422 11.6752 12.165L6.26117 4.82469C6.8965 4.42026 7.65019 4.53652 7.65642 4.53652ZM6.34339 10.0315L6.3845 10.0241C6.84044 9.92765 7.29016 10.0921 7.29016 10.0921C7.51814 10.2504 7.78099 10.3729 8.05008 10.4421L8.19458 9.91404C7.60783 9.75573 7.10953 9.31668 6.89526 8.77497L6.81179 8.57584L6.59752 8.61047C6.53523 8.6179 6.46672 8.6315 6.40443 8.6451C6.06558 8.69952 5.74792 8.75518 5.28449 8.61047C5.15992 8.56966 5.04905 8.52143 4.93194 8.46701C4.64916 8.33715 4.33772 8.18626 3.81948 8.17265C4.3863 6.86909 5.33308 5.79185 5.33931 5.77824L5.45641 5.64096L5.38042 5.47647C5.38042 5.47647 4.8273 4.31761 4.66909 3.99481C4.64791 3.96018 4.68279 3.84392 4.74508 3.71406L11.3164 12.6189C11.081 12.7215 10.6251 12.8934 9.89255 13.0307C8.84238 13.2299 7.12199 13.0579 7.10828 13.0579L6.93512 13.0369L6.84543 13.1878C6.83795 13.1952 6.40318 13.915 5.77408 14.2514C5.11133 14.6076 4.79242 14.6905 4.08109 14.8686C4.03251 14.8822 3.98392 14.8958 3.92911 14.9032C3.95652 14.8067 3.97769 14.7251 3.99763 14.6633C4.48846 14.3343 4.77872 13.9497 4.86094 13.5106C4.91575 13.2224 4.87464 12.9132 4.83353 12.5917C4.75754 11.9807 4.67407 11.3499 5.17238 10.7056C5.57974 10.1911 5.8837 10.1292 6.33965 10.0328L6.34339 10.0315ZM2.01064 12.7549C2.22491 12.5076 2.5214 12.165 2.78426 11.0741C2.92254 10.5052 3.28132 9.82623 4.17328 9.82623C4.57441 9.82623 4.82232 9.98454 4.9606 10.1144C4.88461 10.1898 4.80862 10.2789 4.73262 10.3754C4.67781 10.4434 4.62923 10.5126 4.58812 10.5807C4.0213 10.6289 3.40714 10.9579 3.12311 12.0834C2.90884 12.9343 2.54258 13.0641 2.15515 13.2014C2.06546 13.236 1.96829 13.2694 1.87859 13.3115C1.81631 13.3387 1.75402 13.3795 1.69921 13.4216C1.72038 13.2843 1.75402 13.1544 1.82378 13.0035C1.87859 12.9071 1.93465 12.8452 2.01064 12.7562V12.7549Z" fill="white"/>
<path d="M0 17.0057C0 19.2146 1.32673 20.5318 3.55165 20.5318H6.16401C7.28394 20.5318 8.35405 21.0055 9.10026 21.8416L9.30705 22.0679L9.51385 21.8416C10.2601 21.0117 11.3314 20.5318 12.4501 20.5318H15.0625C17.3497 20.5318 18.6141 19.2765 18.6141 17.0057V0H0V17.0057ZM0.553116 0.549131H18.0622V17.0057C18.0622 18.9537 17.0258 19.9827 15.0637 19.9827H12.4513C11.2766 19.9827 10.143 20.4428 9.30705 21.259C8.47115 20.4428 7.33751 19.9827 6.16276 19.9827H3.55165C1.6444 19.9827 0.553116 18.8993 0.553116 17.0057V0.549131Z" fill="white"/>
</g>
<defs>
<clipPath id="clip0_2013_285">
<rect width="44.9556" height="22.0691" fill="white"/>
</clipPath>
</defs>
</svg>
