<svg width="76" height="22" viewBox="0 0 76 22" fill="none" xmlns="http://www.w3.org/2000/svg">
<path d="M4.09925 8.69509V7.38264H5.73896V8.69509V8.77711V8.94117C5.73896 11.1559 4.75513 13.2066 3.11543 14.6831C2.2136 15.5034 1.14779 16.1596 0 16.5697V14.9292C0.737866 14.6011 1.39375 14.1909 1.96764 13.6168C3.2794 12.4684 4.09925 10.7458 4.09925 8.94117V8.77711V8.69509ZM12.2978 8.69509V7.38264H13.9375V8.69509V8.77711V8.94117C13.9375 10.7458 14.7573 12.3863 16.0691 13.6168C16.643 14.1089 17.2989 14.6011 18.0367 14.9292V16.5697C16.8069 16.1596 15.7411 15.5034 14.9213 14.6831C13.2816 13.2066 12.2978 11.1559 12.2978 8.94117V8.77711V8.69509ZM0 19.3587C1.88566 18.8665 3.60734 17.8822 5.00109 16.6518C6.0669 15.6674 6.88675 14.6011 7.46064 13.2886C7.87057 14.355 8.36248 15.2573 9.01836 16.1596C9.59225 15.3393 10.0842 14.355 10.5761 13.2886C11.15 14.5191 11.9698 15.6674 13.0356 16.6518C14.4294 17.8822 16.1511 18.8665 18.0367 19.3587V17.7181C16.561 17.226 15.2492 16.4877 14.1834 15.5034C12.3797 13.8628 11.3139 11.5661 11.3139 9.10522V2.21489H9.67424V9.10522C9.67424 10.3356 9.42828 11.7301 9.10034 12.8785C8.69042 11.8121 8.52645 10.3356 8.52645 9.10522V2.21489H6.88675V9.10522C6.88675 11.5661 5.73896 13.8628 4.01727 15.5034C2.95146 16.4877 1.6397 17.226 0.16397 17.7181V19.3587H0ZM7.37866 15.6674C6.96873 16.2416 6.47682 16.7338 5.90293 17.226C4.26322 18.7025 2.29558 19.7688 0 20.261V21.8195C2.70551 21.2453 5.16506 20.0149 7.1327 18.2923C7.54263 17.8822 7.95255 17.5541 8.28049 17.0619H8.19851C7.87057 16.6518 7.62461 16.1596 7.37866 15.6674ZM9.83821 17.226C10.1661 17.6361 10.5761 17.9642 10.904 18.3744C12.7897 20.0969 15.2492 21.4094 18.0367 21.9016V20.343C15.7411 19.8509 13.6915 18.7845 12.1338 17.308C11.6419 16.8158 11.15 16.3237 10.74 15.8315C10.4941 16.3237 10.2481 16.7338 9.92019 17.1439C9.92019 17.1439 9.83821 17.1439 9.83821 17.226Z" fill="white"/>
<path d="M25.4158 8.28481C25.8257 6.31614 26.3176 4.18342 26.4816 2.21475H28.4492V11.3198H27.2194V7.71061L27.3834 4.4295C27.2194 5.49586 26.4816 9.35117 25.5797 11.2378H25.4158H25.2518C24.35 9.35117 23.6121 5.49586 23.4481 4.4295L23.6121 7.71061V11.3198H22.3823V2.21475H24.35C24.5959 4.18342 25.0878 6.31614 25.4158 8.28481ZM54.7664 3.77328V4.18342V4.92167C54.7664 5.65992 54.4385 6.15209 53.9466 6.4802C54.4385 6.89034 54.7664 7.54656 54.7664 8.28481V11.2378C53.8646 11.2378 53.0447 11.2378 52.1429 11.2378H50.6672V2.13272H52.1429C53.0447 2.13272 53.8646 2.13272 54.7664 2.13272V3.77328ZM52.0609 7.21845V10.0074H53.2907C53.2907 9.4332 53.2907 8.859 53.2907 8.20278C53.2907 7.30048 52.6348 7.21845 52.0609 7.21845ZM52.0609 3.44517V5.906C52.6348 5.906 53.2907 5.906 53.2907 5.0037V4.18342V3.5272H52.0609V3.44517ZM46.8139 11.3198H45.3381V2.13272H46.8139H48.2076H49.6834V11.2378H48.2076H46.8139V11.3198ZM48.1256 3.44517H46.8139V10.0074H48.1256V3.44517ZM30.9908 11.3198H29.515V2.13272H30.9908H32.3845H33.8602V11.2378H32.3845H30.9908V11.3198ZM32.3025 3.44517H30.9908V10.0074H32.3025V3.44517ZM57.144 11.3198H55.6683V2.13272H57.144H58.5377H60.0135V5.82398H58.5377V3.44517H57.144V10.0074H58.5377V7.62859H60.0135V11.3198H58.5377H57.144ZM36.2378 11.3198H34.7621V2.13272H36.2378H37.6315H39.1073V5.82398H37.6315V3.44517H36.2378V10.0074H37.6315V7.62859H39.1073V11.3198H37.6315H36.2378ZM62.473 11.3198H60.9973V2.21475H62.473V5.82398H62.719C63.5388 5.82398 63.7848 5.0037 63.7848 4.4295V2.29678H65.2605V4.34747C65.2605 5.33181 64.9326 5.98803 64.1947 6.4802C64.9326 6.97236 65.2605 7.71061 65.2605 8.61292V11.3198H63.7848V8.53089C63.7848 7.9567 63.4568 7.21845 62.719 7.21845H62.473V11.3198ZM75.3447 1.06636H72.1473V1.90735e-06H75.3447V1.06636ZM71.5734 11.3198V2.21475H72.8851V7.54656L74.3609 2.21475H76.0006V11.3198H74.6068V5.0037L72.8031 11.4019L71.5734 11.3198ZM66.1624 11.3198V2.21475H67.4741V7.54656L68.9498 2.21475H70.5895V11.3198H69.2778V5.0037L67.4741 11.4019L66.1624 11.3198ZM41.5668 11.3198H40.1731V2.21475H41.6488V5.82398H41.8948C42.7146 5.82398 42.9606 5.0037 42.9606 4.4295V2.29678H44.4363V4.34747C44.4363 5.33181 44.1084 5.98803 43.3705 6.4802C44.1084 6.97236 44.4363 7.71061 44.4363 8.61292V11.3198H42.9606V8.53089C42.9606 7.9567 42.6326 7.21845 41.8948 7.21845H41.6488V11.3198H41.5668Z" fill="white"/>
<path d="M29.1871 21.9012H27.7114V12.7961H31.9746V21.9012H30.4988V14.1086H29.1051V21.9012H29.1871ZM23.8581 21.9012H22.3823V12.7961H23.8581H25.2518H26.7275V16.4874H25.2518V14.1086H23.8581V20.6708H25.2518V18.292H26.7275V21.9832H25.2518H23.8581V21.9012ZM34.4341 21.9012H32.9584V12.7961H34.4341H35.8279H37.3036V21.9012H35.8279H34.4341ZM35.8279 14.0266H34.5161V20.5888H35.8279V14.0266ZM42.7966 12.7961H47.3058V14.1086H45.8301V21.9012H44.2723V14.1086H42.7966V12.7961ZM42.3867 15.9132V16.3233V17.0616C42.3867 18.4561 41.6488 19.4404 40.2551 19.4404H39.7632V21.9012H38.2874V12.7961C39.6812 12.7961 40.9929 12.7961 42.3867 12.7961V15.9132ZM39.7632 14.0266V18.1279C40.3371 18.1279 40.9929 18.0459 40.9929 17.1436V16.3233V14.1086H39.7632V14.0266Z" fill="white"/>
</svg>
