<svg class="map__scheme" width="1522" height="836" viewBox="0 0 1522 836" fill="none" xmlns="http://www.w3.org/2000/svg">
    <g id="Group 37585">
        <g class="figure figure_25" id="figure 25">
            <rect id="Rectangle 386" x="648.117" y="599.117" width="20.7658" height="20.7658" fill="white" stroke="#EB3333" stroke-width="4.2342" />
            <path
                id="25"
                d="M657.721 603.964V606.81L654.673 612.822V613.347H657.721V615.041H652.894V612.585L655.943 606.573V604.879H654.673V606.573H652.894V603.964C652.894 603.507 653.199 603.185 653.674 603.185H656.942C657.417 603.185 657.721 603.507 657.721 603.964ZM662.04 608.774H660.769V609.452H658.991V603.185H663.733V604.879H660.769V607.081H663.039C663.513 607.081 663.818 607.403 663.818 607.86V614.262C663.818 614.719 663.513 615.041 663.039 615.041H659.77C659.296 615.041 658.991 614.719 658.991 614.262V611.146H660.769V613.347H662.04V608.774Z"
                fill="#EB3333"
            />
        </g>
        <g class="figure figure_24" id="figure 24">
            <rect id="Rectangle 394" x="677.117" y="599.117" width="20.7658" height="19.7658" fill="white" stroke="#EB3333" stroke-width="4.2342" />
            <path
                id="24"
                d="M686.589 604.202V607.047L683.541 613.06V613.585H686.589V615.278H681.762V612.822L684.811 606.81V605.116H683.541V606.81H681.762V604.202C681.762 603.744 682.067 603.423 682.541 603.423H685.81C686.284 603.423 686.589 603.744 686.589 604.202ZM692.432 615.278H690.653V613.077H687.689V611.552L690.027 603.423H691.89L689.603 611.383H690.653V609.859L692.432 609.52V611.383H693.109V613.077H692.432V615.278Z"
                fill="#EB3333"
            />
        </g>
        <g class="figure figure_23" id="figure 23">
            <rect id="Rectangle 401" x="619.952" y="599.117" width="20.7658" height="19.7658" fill="white" stroke="#EB3333" stroke-width="4.2342" />
            <path
                id="23"
                d="M629.721 603.845V606.69L626.673 612.703V613.228H629.721V614.921H624.894V612.466L627.943 606.453V604.759H626.673V606.453H624.894V603.845C624.894 603.387 625.199 603.066 625.674 603.066H628.942C629.417 603.066 629.721 603.387 629.721 603.845ZM635.039 614.921H631.77C631.296 614.921 630.991 614.6 630.991 614.142V611.026H632.769V613.228H634.04V609.027H632.261V607.452L633.87 604.759H631.076V603.066H635.733V604.59L634.107 607.334H635.039C635.513 607.334 635.818 607.655 635.818 608.113V614.142C635.818 614.6 635.513 614.921 635.039 614.921Z"
                fill="#EB3333"
            />
        </g>
        <g class="figure figure_22" id="figure 22">
            <rect id="Rectangle 386_2" x="347.117" y="395.117" width="107.766" height="18.3223" fill="white" stroke="#EB3333" stroke-width="4.2342" />
            <path
                id="22"
                d="M398.871 399.562V402.408L395.822 408.42V408.945H398.871V410.639H394.044V408.183L397.093 402.171V400.477H395.822V402.171H394.044V399.562C394.044 399.105 394.349 398.783 394.823 398.783H398.092C398.566 398.783 398.871 399.105 398.871 399.562ZM404.883 399.562V402.408L401.834 408.42V408.945H404.883V410.639H400.056V408.183L403.104 402.171V400.477H401.834V402.171H400.056V399.562C400.056 399.105 400.361 398.783 400.835 398.783H404.104C404.578 398.783 404.883 399.105 404.883 399.562Z"
                fill="#EB3333"
            />
        </g>
        <g class="figure figure_12" id="figure 12">
            <rect id="Rectangle 385" x="535.894" y="282.52" width="21.171" height="22.0179" transform="rotate(-48.4686 535.894 282.52)" fill="white" stroke="#EB3333" stroke-width="4.2342" />
            <path
                id="12"
                d="M547.119 278.155V276.461H549.66V288.317H547.881V278.155H547.119ZM555.843 277.24V280.086L552.794 286.098V286.623H555.843V288.317H551.016V285.861L554.065 279.849V278.155H552.794V279.849H551.016V277.24C551.016 276.783 551.321 276.461 551.795 276.461H555.064C555.538 276.461 555.843 276.783 555.843 277.24Z"
                fill="#EB3333"
            />
        </g>
        <g class="figure figure_20" id="figure 20">
            <rect id="Rectangle 386_3" x="596.117" y="563.117" width="20.7658" height="19.7658" fill="white" stroke="#EB3333" stroke-width="4.2342" />
            <path
                id="20"
                d="M605.721 567.779V570.625L602.673 576.637V577.162H605.721V578.856H600.894V576.4L603.943 570.388V568.694H602.673V570.388H600.894V567.779C600.894 567.322 601.199 567 601.674 567H604.942C605.417 567 605.721 567.322 605.721 567.779ZM608.769 577.162H610.04V568.694H608.769V577.162ZM611.039 578.856H607.77C607.296 578.856 606.991 578.534 606.991 578.077V567.779C606.991 567.322 607.296 567 607.77 567H611.039C611.513 567 611.818 567.322 611.818 567.779V578.077C611.818 578.534 611.513 578.856 611.039 578.856Z"
                fill="#EB3333"
            />
        </g>
        <g class="figure figure_19" id="figure 19">
            <rect id="Rectangle 386_4" x="596.117" y="536.117" width="20.7658" height="19.7658" fill="white" stroke="#EB3333" stroke-width="4.2342" />
            <path
                id="19"
                d="M601.91 541.694V540H604.45V551.856H602.672V541.694H601.91ZM607.67 545.081H608.94V541.694H607.67V545.081ZM605.891 545.996V540.779C605.891 540.322 606.196 540 606.67 540H609.939C610.413 540 610.718 540.322 610.718 540.779V551.077C610.718 551.534 610.413 551.856 609.939 551.856H606.67C606.196 551.856 605.891 551.534 605.891 551.077V547.96H607.67V550.162H608.94V546.775H606.67C606.196 546.775 605.891 546.453 605.891 545.996Z"
                fill="#EB3333"
            />
        </g>
        <g class="figure figure_18" id="figure 18">
            <rect id="Rectangle 386_5" x="596.117" y="509.117" width="20.7658" height="19.7658" fill="white" stroke="#EB3333" stroke-width="4.2342" />
            <path
                id="18"
                d="M601.91 514.694V513H604.45V524.856H602.672V514.694H601.91ZM610.718 519.741V524.077C610.718 524.534 610.413 524.856 609.939 524.856H606.67C606.196 524.856 605.891 524.534 605.891 524.077V519.741C605.891 519.047 606.213 518.606 606.738 518.42C606.213 518.234 605.891 517.776 605.891 517.099V513.779C605.891 513.322 606.196 513 606.67 513H609.939C610.413 513 610.718 513.322 610.718 513.779V517.099C610.718 517.776 610.396 518.234 609.854 518.42C610.396 518.606 610.718 519.047 610.718 519.741ZM608.94 519.267H607.67V523.162H608.94V519.267ZM607.67 517.573H608.94V514.694H607.67V517.573Z"
                fill="#EB3333"
            />
        </g>
        <g class="figure figure_17" id="figure 17">
            <rect id="Rectangle 386_6" x="596.117" y="482.117" width="20.7658" height="19.7658" fill="white" stroke="#EB3333" stroke-width="4.2342" />
            <path id="17" d="M602.29 487.694V486H604.831V497.856H603.052V487.694H602.29ZM607.423 497.856V492.436L608.846 487.694H605.933V486H610.675V487.524L609.202 492.436V497.856H607.423Z" fill="#EB3333" />
        </g>
        <g class="figure figure_27" id="figure 27">
            <rect id="Rectangle 399" x="785.117" y="328.117" width="55.0693" height="53.5668" fill="white" stroke="#EB3333" stroke-width="4.2342" />
            <path
                id="27"
                d="M812.642 350.89V353.735L809.593 359.748V360.273H812.642V361.966H807.815V359.51L810.863 353.498V351.804H809.593V353.498H807.815V350.89C807.815 350.432 808.119 350.111 808.594 350.111H811.863C812.337 350.111 812.642 350.432 812.642 350.89ZM815.063 361.966V356.547L816.486 351.804H813.572V350.111H818.315V351.635L816.841 356.547V361.966H815.063Z"
                fill="#EB3333"
            />
        </g>
        <g class="figure figure_16" id="figure 16">
            <rect id="Rectangle 409" x="617.042" y="455.474" width="18.9142" height="18.7072" transform="rotate(-0.264777 617.042 455.474)" fill="white" stroke="#EB3333" stroke-width="4.2342" />
            <path
                id="16"
                d="M622.428 460.059V458.365H624.968V470.221H623.19V460.059H622.428ZM629.458 464.632H628.188V468.527H629.458V464.632ZM631.236 459.144V461.752H629.458V460.059H628.188V462.938H630.457C630.931 462.938 631.236 463.26 631.236 463.717V469.442C631.236 469.899 630.931 470.221 630.457 470.221H627.188C626.714 470.221 626.409 469.899 626.409 469.442V459.144C626.409 458.687 626.714 458.365 627.188 458.365H630.457C630.931 458.365 631.236 458.687 631.236 459.144Z"
                fill="#EB3333"
            />
        </g>
        <g class="figure figure_9" id="figure 9-1">
            <rect id="Rectangle 409_2" x="633.312" y="428.294" width="53.337" height="18.7072" transform="rotate(-0.264777 633.312 428.294)" fill="white" stroke="#EB3333" stroke-width="4.2342" />
            <path
                id="9"
                d="M659.763 437.187H661.033V433.799H659.763V437.187ZM657.985 438.101V432.885C657.985 432.427 658.29 432.106 658.764 432.106H662.033C662.507 432.106 662.812 432.427 662.812 432.885V443.182C662.812 443.64 662.507 443.961 662.033 443.961H658.764C658.29 443.961 657.985 443.64 657.985 443.182V440.066H659.763V442.268H661.033V438.88H658.764C658.29 438.88 657.985 438.559 657.985 438.101Z"
                fill="#EB3333"
            />
        </g>
        <g class="figure figure_9" id="figure 9-2">
            <rect id="Rectangle 409_3" x="705.514" y="422.288" width="16.5618" height="18.7072" transform="rotate(-0.264777 705.514 422.288)" fill="white" stroke="#EB3333" stroke-width="4.2342" />
            <path
                id="9_2"
                d="M713.578 431.266H714.848V427.879H713.578V431.266ZM711.8 432.181V426.964C711.8 426.507 712.104 426.185 712.579 426.185H715.847C716.322 426.185 716.627 426.507 716.627 426.964V437.262C716.627 437.719 716.322 438.041 715.847 438.041H712.579C712.104 438.041 711.8 437.719 711.8 437.262V434.146H713.578V436.347H714.848V432.96H712.579C712.104 432.96 711.8 432.638 711.8 432.181Z"
                fill="#EB3333"
            />
        </g>
        <g class="figure figure_26" id="figure 26">
            <rect id="Rectangle 409_4" x="589.7" y="422.288" width="17.3151" height="18.7072" transform="rotate(-0.264777 589.7 422.288)" fill="white" stroke="#EB3333" stroke-width="4.2342" />
            <path
                id="26"
                d="M597.721 426.964V429.81L594.673 435.822V436.347H597.721V438.041H592.894V435.585L595.943 429.573V427.879H594.673V429.573H592.894V426.964C592.894 426.507 593.199 426.185 593.674 426.185H596.942C597.417 426.185 597.721 426.507 597.721 426.964ZM602.04 432.452H600.769V436.347H602.04V432.452ZM603.818 426.964V429.573H602.04V427.879H600.769V430.758H603.039C603.513 430.758 603.818 431.08 603.818 431.537V437.262C603.818 437.719 603.513 438.041 603.039 438.041H599.77C599.296 438.041 598.991 437.719 598.991 437.262V426.964C598.991 426.507 599.296 426.185 599.77 426.185H603.039C603.513 426.185 603.818 426.507 603.818 426.964Z"
                fill="#EB3333"
            />
        </g>
        <g class="figure figure_10" id="figure 10">
            <rect id="Rectangle 410" x="750.166" y="284.029" width="20.5674" height="20.6649" transform="rotate(-39.8826 750.166 284.029)" fill="white" stroke="#EB3333" stroke-width="4.2342" />
            <path
                id="10"
                d="M759.955 282.276V280.583H762.496V292.438H760.718V282.276H759.955ZM765.715 290.745H766.985V282.276H765.715V290.745ZM767.985 292.438H764.716C764.242 292.438 763.937 292.117 763.937 291.659V281.362C763.937 280.905 764.242 280.583 764.716 280.583H767.985C768.459 280.583 768.764 280.905 768.764 281.362V291.659C768.764 292.117 768.459 292.438 767.985 292.438Z"
                fill="#EB3333"
            />
        </g>
        <g class="figure figure_14" id="figure 14">
            <rect id="Rectangle 386_7" x="483.936" y="336.117" width="36.707" height="38.7651" fill="#3B3393" stroke="white" stroke-width="4.2342" />
            <path
                id="14"
                d="M498.381 351.305V349.611H500.922V361.467H499.143V351.305H498.381ZM506.935 361.467H505.157V359.265H502.193V357.741L504.53 349.611H506.394L504.107 357.571H505.157V356.047L506.935 355.708V357.571H507.613V359.265H506.935V361.467Z"
                fill="white"
            />
        </g>
        <g class="figure figure_21" id="figure 21">
            <rect id="Rectangle 386_8" x="309.117" y="343.117" width="22.7658" height="24.7658" fill="white" stroke="#EB3333" stroke-width="4.2342" />
            <path
                id="21"
                d="M320.689 350.39V353.236L317.64 359.248V359.773H320.689V361.467H315.862V359.011L318.911 352.998V351.305H317.64V352.998H315.862V350.39C315.862 349.933 316.167 349.611 316.641 349.611H319.91C320.384 349.611 320.689 349.933 320.689 350.39ZM321.789 351.305V349.611H324.33V361.467H322.551V351.305H321.789Z"
                fill="#EB3333"
            />
        </g>
        <g class="figure figure_13" id="figure 13">
            <rect id="Rectangle 389" x="770.009" y="471.923" width="23.3078" height="37.0549" transform="rotate(-41.4898 770.009 471.923)" fill="white" stroke="#EB3333" stroke-width="4.2342" />
            <path
                id="13"
                d="M785.914 473.693V472H788.455V483.855H786.676V473.693H785.914ZM793.943 483.855H790.675C790.2 483.855 789.896 483.534 789.896 483.076V479.96H791.674V482.162H792.944V477.961H791.166V476.386L792.775 473.693H789.98V472H794.638V473.524L793.012 476.268H793.943C794.418 476.268 794.723 476.59 794.723 477.047V483.076C794.723 483.534 794.418 483.855 793.943 483.855Z"
                fill="#EB3333"
            />
        </g>
        <g class="figure figure_11" id="figure 11-1">
            <rect id="Rectangle 389_2" x="470.811" y="433.123" width="23.3078" height="38.5998" transform="rotate(-30.2621 470.811 433.123)" fill="white" stroke="#EB3333" stroke-width="4.2342" />
            <path id="11" d="M487.076 440.2V438.507H489.616V450.362H487.838V440.2H487.076ZM490.888 440.2V438.507H493.429V450.362H491.65V440.2H490.888Z" fill="#EB3333" />
        </g>
        <g class="figure figure_11" id="figure 11-2">
            <rect id="Rectangle 389_3" x="535.146" y="511.854" width="23.3078" height="38.5998" transform="rotate(-59.9296 535.146 511.854)" fill="white" stroke="#EB3333" stroke-width="4.2342" />
            <path id="11_2" d="M554.161 507.718V506.025H556.701V517.88H554.923V507.718H554.161ZM557.973 507.718V506.025H560.513V517.88H558.735V507.718H557.973Z" fill="#EB3333" />
        </g>
        <g class="figure figure_7" id="figure 7">
            <rect id="Rectangle 382" x="2.98973" y="0.160495" width="22.3529" height="22.7053" transform="matrix(0.668186 0.743995 0.743995 -0.668186 739.792 437.891)" fill="white" stroke="#EB3333" stroke-width="4.2342" />
            <path id="Vector 24" d="M721.61 452.9L732.888 446.966L742 439.5L760 423.5L768.198 414.427L772.723 404.558" stroke="#EB3333" stroke-width="4.22934" />
            <path id="7" d="M756.38 447.574V442.154L757.802 437.412H754.889V435.718H759.632V437.243L758.158 442.154V447.574H756.38Z" fill="#EB3333" />
        </g>
        <g class="figure figure_27" id="figure 27-2">
            <rect id="Rectangle 382_2" x="573.818" y="440.008" width="22.3529" height="22.7053" transform="rotate(131.927 573.818 440.008)" fill="white" stroke="#EB3333" stroke-width="4.2342" />
            <path id="Vector 24_2" d="M594.118 452.9L582.84 446.966L573.728 439.5L555.728 423.5L547.529 414.427L543.005 404.558" stroke="#EB3333" stroke-width="4.22934" />
            <path
                id="15"
                d="M553.982 437.412V435.718H556.522V447.574H554.744V437.412H553.982ZM561.012 441.307H559.742V441.985H557.963V435.718H562.706V437.412H559.742V439.614H562.011C562.486 439.614 562.79 439.935 562.79 440.393V446.795C562.79 447.252 562.486 447.574 562.011 447.574H558.743C558.268 447.574 557.963 447.252 557.963 446.795V443.679H559.742V445.88H561.012V441.307Z"
                fill="#EB3333"
            />
        </g>
        <g class="figure figure_6" id="figure 6">
            <rect id="Rectangle 400" x="713.871" y="503.117" width="68.7658" height="11.7536" transform="rotate(90 713.871 503.117)" fill="white" stroke="#EB3333" stroke-width="4.2342" />
            <path
                id="6"
                d="M708.482 533.043H707.212V536.938H708.482V533.043ZM710.261 527.555V530.163H708.482V528.47H707.212V531.349H709.481C709.956 531.349 710.261 531.671 710.261 532.128V537.853C710.261 538.31 709.956 538.632 709.481 538.632H706.213C705.738 538.632 705.434 538.31 705.434 537.853V527.555C705.434 527.098 705.738 526.776 706.213 526.776H709.481C709.956 526.776 710.261 527.098 710.261 527.555Z"
                fill="#EB3333"
            />
        </g>
        <g class="figure figure_5" id="figure 5">
            <rect id="Rectangle 398" x="432.117" y="583.117" width="31.7658" height="18.7658" fill="white" stroke="#EB3333" stroke-width="4.2342" />
            <path
                id="5"
                d="M447.692 592.826H446.421V593.504H444.643V587.237H449.385V588.931H446.421V591.132H448.691C449.165 591.132 449.47 591.454 449.47 591.912V598.314C449.47 598.771 449.165 599.093 448.691 599.093H445.422C444.948 599.093 444.643 598.771 444.643 598.314V595.197H446.421V597.399H447.692V592.826Z"
                fill="#EB3333"
            />
        </g>
        <g class="figure figure_4" id="figure 4">
            <rect id="Rectangle 409_5" x="2.12935" y="2.10926" width="31.3874" height="18.3696" transform="matrix(0.999993 -0.00368781 0.00579084 0.999983 429.988 554.139)" fill="white" stroke="#EB3333" stroke-width="4.2342" />
            <path id="4" d="M450.267 570.905H448.489V568.703H445.525V567.179L447.862 559.05H449.725L447.439 567.01H448.489V565.485L450.267 565.147V567.01H450.945V568.703H450.267V570.905Z" fill="#EB3333" />
        </g>
        <g class="figure figure_3" id="figure 3">
            <rect id="Rectangle 383" x="473.117" y="556.117" width="48.9766" height="45.7658" fill="white" stroke="#EB3333" stroke-width="4.2342" />
            <path
                id="3"
                d="M499.51 584.667H496.242C495.767 584.667 495.463 584.345 495.463 583.887V580.771H497.241V582.973H498.511V578.772H496.733V577.197L498.342 574.504H495.547V572.811H500.205V574.335L498.579 577.079H499.51C499.985 577.079 500.29 577.401 500.29 577.858V583.887C500.29 584.345 499.985 584.667 499.51 584.667Z"
                fill="#EB3333"
            />
        </g>
        <g class="figure figure_2" id="figure 2">
            <rect id="Rectangle 379" x="648.117" y="475.117" width="20.7658" height="21.9429" fill="white" stroke="#EB3333" stroke-width="4.2342" />
            <path
                id="2"
                d="M660.925 481.323V484.168L657.876 490.181V490.706H660.925V492.399H656.098V489.944L659.146 483.931V482.237H657.876V483.931H656.098V481.323C656.098 480.865 656.403 480.544 656.877 480.544H660.146C660.62 480.544 660.925 480.865 660.925 481.323Z"
                fill="#EB3333"
            />
        </g>
        <g class="figure figure_1" id="figure 1">
            <rect id="Rectangle 378" x="647.623" y="505.117" width="21.2596" height="85.7658" fill="white" stroke="#EB3333" stroke-width="4.2342" />
            <path id="1" d="M656.632 545.511V543.817H659.173V555.673H657.395V545.511H656.632Z" fill="#EB3333" />
        </g>
    </g>
</svg>
