<svg width="1522" height="836" viewBox="0 0 1522 836" fill="none" xmlns="http://www.w3.org/2000/svg">
<g id="Group 37585">
<g id="figure 13">
<rect id="Rectangle 386" x="648.117" y="564.117" width="20.7658" height="23.7658" fill="white" stroke="#EB3333" stroke-width="4.2342"/>
<path id="13" d="M653.935 572.107V570.413H656.475V582.269H654.697V572.107H653.935ZM661.964 582.269H658.695C658.221 582.269 657.916 581.947 657.916 581.49V578.374H659.695V580.575H660.965V576.375H659.187V574.8L660.796 572.107H658.001V570.413H662.659V571.938L661.033 574.681H661.964C662.438 574.681 662.743 575.003 662.743 575.46V581.49C662.743 581.947 662.438 582.269 661.964 582.269Z" fill="#EB3333"/>
</g>
<g id="figure 24">
<rect id="Rectangle 394" x="347.228" y="475.919" width="99.1257" height="42.3932" rx="21.1966" fill="white" stroke="#EB3333" stroke-width="4.2342"/>
<path id="24" d="M395.39 494.153V496.999L392.341 503.011V503.536H395.39V505.23H390.563V502.774L393.612 496.762V495.068H392.341V496.762H390.563V494.153C390.563 493.696 390.868 493.374 391.342 493.374H394.611C395.085 493.374 395.39 493.696 395.39 494.153ZM401.232 505.23H399.454V503.028H396.49V501.504L398.827 493.374H400.69L398.404 501.335H399.454V499.81L401.232 499.471V501.335H401.91V503.028H401.232V505.23Z" fill="#EB3333"/>
</g>
<g id="figure 23">
<rect id="Rectangle 394_2" x="867.124" y="475.919" width="99.1257" height="42.3932" rx="21.1966" fill="white" stroke="#EB3333" stroke-width="4.2342"/>
<path id="23" d="M915.418 494.153V496.999L912.369 503.011V503.536H915.418V505.23H910.591V502.774L913.639 496.762V495.068H912.369V496.762H910.591V494.153C910.591 493.696 910.896 493.374 911.37 493.374H914.639C915.113 493.374 915.418 493.696 915.418 494.153ZM920.735 505.23H917.466C916.992 505.23 916.687 504.908 916.687 504.451V501.335H918.466V503.536H919.736V499.336H917.958V497.761L919.567 495.068H916.772V493.374H921.43V494.899L919.804 497.642H920.735C921.209 497.642 921.514 497.964 921.514 498.421V504.451C921.514 504.908 921.209 505.23 920.735 505.23Z" fill="#EB3333"/>
</g>
<g id="figure 21">
<rect id="Rectangle 401" x="640.337" y="602.727" width="33.4602" height="13.3253" fill="white" stroke="#EB3333" stroke-width="2.85453"/>
<path id="28" d="M656.057 605.824V607.742L654.001 611.796V612.15H656.057V613.292H652.802V611.636L654.858 607.582V606.441H654.001V607.582H652.802V605.824C652.802 605.516 653.008 605.299 653.328 605.299H655.531C655.851 605.299 656.057 605.516 656.057 605.824ZM660.167 609.843V612.766C660.167 613.075 659.961 613.292 659.641 613.292H657.438C657.118 613.292 656.913 613.075 656.913 612.766V609.843C656.913 609.375 657.129 609.078 657.483 608.953C657.129 608.827 656.913 608.519 656.913 608.062V605.824C656.913 605.516 657.118 605.299 657.438 605.299H659.641C659.961 605.299 660.167 605.516 660.167 605.824V608.062C660.167 608.519 659.95 608.827 659.584 608.953C659.95 609.078 660.167 609.375 660.167 609.843ZM658.968 609.524H658.111V612.15H658.968V609.524ZM658.111 608.382H658.968V606.441H658.111V608.382Z" fill="#EB3333"/>
</g>
<g id="figure 33">
<rect id="Rectangle 401_2" x="674.658" y="461.581" width="15.1658" height="14.4355" fill="white" stroke="#EB3333" stroke-width="3.09235"/>
<rect id="Rectangle 402" x="674.658" y="461.581" width="15.1658" height="14.4355" fill="white" stroke="#EB3333" stroke-width="3.09235"/>
<path id="33" d="M681.226 473.359H678.839C678.492 473.359 678.27 473.124 678.27 472.79V470.514H679.569V472.122H680.496V469.055H679.197V467.904L680.373 465.938H678.332V464.701H681.733V465.814L680.546 467.818H681.226C681.572 467.818 681.795 468.053 681.795 468.387V472.79C681.795 473.124 681.572 473.359 681.226 473.359ZM685.738 473.359H683.35C683.004 473.359 682.781 473.124 682.781 472.79V470.514H684.08V472.122H685.008V469.055H683.709V467.904L684.884 465.938H682.843V464.701H686.245V465.814L685.057 467.818H685.738C686.084 467.818 686.306 468.053 686.306 468.387V472.79C686.306 473.124 686.084 473.359 685.738 473.359Z" fill="#EB3333"/>
</g>
<g id="figure 33-2">
<rect id="Rectangle 401_3" x="699.886" y="608.546" width="15.1658" height="14.4355" fill="white" stroke="#EB3333" stroke-width="3.09235"/>
<rect id="Rectangle 402_2" x="699.886" y="608.546" width="15.1658" height="14.4355" fill="white" stroke="#EB3333" stroke-width="3.09235"/>
<path id="33_2" d="M706.454 620.325H704.066C703.72 620.325 703.497 620.09 703.497 619.756V617.48H704.796V619.088H705.724V616.02H704.425V614.87L705.6 612.903H703.559V611.666H706.961V612.779L705.773 614.783H706.454C706.8 614.783 707.023 615.018 707.023 615.352V619.756C707.023 620.09 706.8 620.325 706.454 620.325ZM710.965 620.325H708.578C708.231 620.325 708.009 620.09 708.009 619.756V617.48H709.308V619.088H710.235V616.02H708.936V614.87L710.112 612.903H708.071V611.666H711.472V612.779L710.285 614.783H710.965C711.311 614.783 711.534 615.018 711.534 615.352V619.756C711.534 620.09 711.311 620.325 710.965 620.325Z" fill="#EB3333"/>
</g>
<g id="figure 33-1">
<rect id="Rectangle 401_4" x="600.886" y="606.546" width="15.1658" height="14.4355" fill="white" stroke="#EB3333" stroke-width="3.09235"/>
<rect id="Rectangle 402_3" x="600.886" y="606.546" width="15.1658" height="14.4355" fill="white" stroke="#EB3333" stroke-width="3.09235"/>
<path id="33_3" d="M607.454 618.325H605.066C604.72 618.325 604.497 618.09 604.497 617.756V615.48H605.796V617.088H606.724V614.02H605.425V612.87L606.6 610.903H604.559V609.666H607.961V610.779L606.773 612.783H607.454C607.8 612.783 608.023 613.018 608.023 613.352V617.756C608.023 618.09 607.8 618.325 607.454 618.325ZM611.965 618.325H609.578C609.231 618.325 609.009 618.09 609.009 617.756V615.48H610.308V617.088H611.235V614.02H609.936V612.87L611.112 610.903H609.071V609.666H612.472V610.779L611.285 612.783H611.965C612.311 612.783 612.534 613.018 612.534 613.352V617.756C612.534 618.09 612.311 618.325 611.965 618.325Z" fill="#EB3333"/>
</g>
<g id="figure 2">
<rect id="Rectangle 401_5" x="626.144" y="461.581" width="15.1658" height="14.4355" fill="white" stroke="#EB3333" stroke-width="3.09235"/>
<path id="2" d="M635.535 465.27V467.348L633.309 471.739V472.122H635.535V473.359H632.01V471.566L634.236 467.175V465.938H633.309V467.175H632.01V465.27C632.01 464.936 632.233 464.701 632.579 464.701H634.966C635.313 464.701 635.535 464.936 635.535 465.27Z" fill="#EB3333"/>
</g>
<g id="figure 26">
<rect id="Rectangle 401_6" x="605.947" y="451.269" width="15.1658" height="14.4355" fill="white" stroke="#EB3333" stroke-width="3.09235"/>
<path id="26" d="M613.082 454.958V457.036L610.855 461.427V461.811H613.082V463.048H609.556V461.254L611.783 456.863V455.626H610.855V456.863H609.556V454.958C609.556 454.624 609.779 454.389 610.125 454.389H612.513C612.859 454.389 613.082 454.624 613.082 454.958ZM616.235 458.966H615.308V461.811H616.235V458.966ZM617.534 454.958V456.863H616.235V455.626H615.308V457.729H616.965C617.312 457.729 617.534 457.964 617.534 458.298V462.479C617.534 462.813 617.312 463.048 616.965 463.048H614.578C614.232 463.048 614.009 462.813 614.009 462.479V454.958C614.009 454.624 614.232 454.389 614.578 454.389H616.965C617.312 454.389 617.534 454.624 617.534 454.958Z" fill="#EB3333"/>
</g>
<g id="figure 16">
<rect id="Rectangle 401_7" x="688.644" y="485.34" width="15.1658" height="14.4355" fill="white" stroke="#EB3333" stroke-width="3.09235"/>
<path id="16" d="M692.995 489.697V488.46H694.851V497.119H693.552V489.697H692.995ZM698.129 493.037H697.202V495.882H698.129V493.037ZM699.428 489.029V490.934H698.129V489.697H697.202V491.8H698.859C699.206 491.8 699.428 492.035 699.428 492.369V496.55C699.428 496.884 699.206 497.119 698.859 497.119H696.472C696.126 497.119 695.903 496.884 695.903 496.55V489.029C695.903 488.695 696.126 488.46 696.472 488.46H698.859C699.206 488.46 699.428 488.695 699.428 489.029Z" fill="#EB3333"/>
</g>
<g id="figure 30">
<rect id="Rectangle 401_8" x="700.002" y="444.699" width="15.1658" height="14.4355" fill="white" stroke="#EB3333" stroke-width="3.09235"/>
<path id="30" d="M706.57 456.477H704.183C703.836 456.477 703.614 456.242 703.614 455.908V453.632H704.912V455.24H705.84V452.173H704.541V451.022L705.716 449.055H703.675V447.818H707.077V448.932L705.889 450.936H706.57C706.916 450.936 707.139 451.171 707.139 451.505V455.908C707.139 456.242 706.916 456.477 706.57 456.477ZM709.424 455.24H710.351V449.055H709.424V455.24ZM711.081 456.477H708.694C708.348 456.477 708.125 456.242 708.125 455.908V448.387C708.125 448.053 708.348 447.818 708.694 447.818H711.081C711.428 447.818 711.65 448.053 711.65 448.387V455.908C711.65 456.242 711.428 456.477 711.081 456.477Z" fill="#EB3333"/>
</g>
<g id="figure 32">
<rect id="Rectangle 401_9" x="530.02" y="304.12" width="15.1658" height="14.4355" fill="white" stroke="#EB3333" stroke-width="3.09235"/>
<path id="32" d="M536.648 315.899H534.261C533.915 315.899 533.692 315.664 533.692 315.33V313.054H534.991V314.662H535.918V311.594H534.62V310.444L535.795 308.477H533.754V307.24H537.155V308.354L535.968 310.357H536.648C536.995 310.357 537.217 310.592 537.217 310.926V315.33C537.217 315.664 536.995 315.899 536.648 315.899ZM541.667 307.809V309.887L539.44 314.279V314.662H541.667V315.899H538.142V314.105L540.368 309.714V308.477H539.44V309.714H538.142V307.809C538.142 307.475 538.364 307.24 538.711 307.24H541.098C541.444 307.24 541.667 307.475 541.667 307.809Z" fill="#EB3333"/>
</g>
<g id="figure 29">
<rect id="Rectangle 401_10" x="103.95" y="504.523" width="19.0917" height="18.1723" fill="white" stroke="#EB3333" stroke-width="3.89285"/>
<path id="29" d="M112.932 508.836V511.452L110.129 516.98V517.463H112.932V519.02H108.494V516.762L111.297 511.234V509.677H110.129V511.234H108.494V508.836C108.494 508.416 108.775 508.12 109.211 508.12H112.216C112.652 508.12 112.932 508.416 112.932 508.836ZM115.734 512.791H116.902V509.677H115.734V512.791ZM114.099 513.632V508.836C114.099 508.416 114.38 508.12 114.816 508.12H117.821C118.257 508.12 118.537 508.416 118.537 508.836V518.304C118.537 518.724 118.257 519.02 117.821 519.02H114.816C114.38 519.02 114.099 518.724 114.099 518.304V515.439H115.734V517.463H116.902V514.349H114.816C114.38 514.349 114.099 514.053 114.099 513.632Z" fill="#EB3333"/>
</g>
<g id="figure 9">
<rect id="Rectangle 386_2" x="597.508" y="472.392" width="16.2785" height="27.2155" fill="white" stroke="#EB3333" stroke-width="4.2342"/>
<path id="9" d="M605.015 483.923H606.285V480.536H605.015V483.923ZM603.236 484.838V479.621C603.236 479.164 603.541 478.842 604.015 478.842H607.284C607.758 478.842 608.063 479.164 608.063 479.621V489.919C608.063 490.376 607.758 490.698 607.284 490.698H604.015C603.541 490.698 603.236 490.376 603.236 489.919V486.802H605.015V489.004H606.285V485.617H604.015C603.541 485.617 603.236 485.295 603.236 484.838Z" fill="#EB3333"/>
</g>
<g id="figure 31-2">
<rect id="Rectangle 386_3" x="535.063" y="402.966" width="14.0186" height="13.3435" fill="white" stroke="#EB3333" stroke-width="2.85843"/>
<path id="31" d="M541.82 413.49H539.613C539.293 413.49 539.087 413.273 539.087 412.964V410.86H540.287V412.347H541.145V409.511H539.944V408.448L541.031 406.63H539.144V405.487H542.288V406.516L541.191 408.368H541.82C542.14 408.368 542.346 408.585 542.346 408.894V412.964C542.346 413.273 542.14 413.49 541.82 413.49ZM543.143 406.63V405.487H544.858V413.49H543.657V406.63H543.143Z" fill="#EB3333"/>
</g>
<g id="figure 17">
<rect id="Rectangle 386_4" x="567.226" y="395.274" width="14.0186" height="13.3435" fill="white" stroke="#EB3333" stroke-width="2.85843"/>
<path id="17" d="M571.393 398.939V397.795H573.108V405.799H571.907V398.939H571.393ZM574.858 405.799V402.14L575.819 398.939H573.852V397.795H577.054V398.824L576.059 402.14V405.799H574.858Z" fill="#EB3333"/>
</g>
<g id="figure 31-1">
<rect id="Rectangle 386_5" x="577.061" y="438.953" width="14.0186" height="13.3435" fill="white" stroke="#EB3333" stroke-width="2.85843"/>
<path id="31_2" d="M583.818 449.478H581.611C581.291 449.478 581.085 449.26 581.085 448.952V446.848H582.286V448.334H583.144V445.499H581.943V444.435L583.029 442.617H581.143V441.474H584.287V442.503L583.189 444.355H583.818C584.138 444.355 584.344 444.572 584.344 444.881V448.952C584.344 449.26 584.138 449.478 583.818 449.478ZM585.141 442.617V441.474H586.856V449.478H585.656V442.617H585.141Z" fill="#EB3333"/>
</g>
<g id="figure 18">
<rect id="Rectangle 386_6" x="603.249" y="419.911" width="14.0186" height="13.3435" fill="white" stroke="#EB3333" stroke-width="2.85843"/>
<path id="18" d="M607.159 423.575V422.432H608.874V430.436H607.673V423.575H607.159ZM613.105 426.983V429.91C613.105 430.218 612.899 430.436 612.579 430.436H610.372C610.052 430.436 609.846 430.218 609.846 429.91V426.983C609.846 426.514 610.064 426.217 610.418 426.091C610.064 425.965 609.846 425.656 609.846 425.199V422.958C609.846 422.649 610.052 422.432 610.372 422.432H612.579C612.899 422.432 613.105 422.649 613.105 422.958V425.199C613.105 425.656 612.888 425.965 612.522 426.091C612.888 426.217 613.105 426.514 613.105 426.983ZM611.904 426.662H611.047V429.292H611.904V426.662ZM611.047 425.519H611.904V423.575H611.047V425.519Z" fill="#EB3333"/>
</g>
<g id="figure 20">
<rect id="Rectangle 386_7" x="697.917" y="419.911" width="14.0186" height="13.3435" fill="white" stroke="#EB3333" stroke-width="2.85843"/>
<path id="20" d="M704.4 422.958V424.879L702.342 428.938V429.292H704.4V430.436H701.141V428.778L703.199 424.719V423.575H702.342V424.719H701.141V422.958C701.141 422.649 701.347 422.432 701.667 422.432H703.874C704.194 422.432 704.4 422.649 704.4 422.958ZM706.457 429.292H707.315V423.575H706.457V429.292ZM707.99 430.436H705.783C705.463 430.436 705.257 430.218 705.257 429.91V422.958C705.257 422.649 705.463 422.432 705.783 422.432H707.99C708.31 422.432 708.516 422.649 708.516 422.958V429.91C708.516 430.218 708.31 430.436 707.99 430.436Z" fill="#EB3333"/>
</g>
<g id="figure 19">
<rect id="Rectangle 386_8" x="727.374" y="405.517" width="14.0186" height="13.3435" fill="white" stroke="#EB3333" stroke-width="2.85843"/>
<path id="19" d="M731.284 409.181V408.037H732.999V416.041H731.798V409.181H731.284ZM735.172 411.468H736.029V409.181H735.172V411.468ZM733.971 412.085V408.563C733.971 408.255 734.177 408.037 734.497 408.037H736.704C737.024 408.037 737.23 408.255 737.23 408.563V415.515C737.23 415.824 737.024 416.041 736.704 416.041H734.497C734.177 416.041 733.971 415.824 733.971 415.515V413.411H735.172V414.898H736.029V412.611H734.497C734.177 412.611 733.971 412.394 733.971 412.085Z" fill="#EB3333"/>
</g>
<g id="figure 15">
<rect id="Rectangle 386_9" x="553.281" y="425.723" width="18.9446" height="18.0724" fill="white" stroke="#EB3333" stroke-width="2.85843"/>
<path id="15" d="M559.654 431.751V430.608H561.369V438.611H560.169V431.751H559.654ZM564.4 434.381H563.543V434.838H562.342V430.608H565.543V431.751H563.543V433.237H565.075C565.395 433.237 565.601 433.455 565.601 433.763V438.085C565.601 438.394 565.395 438.611 565.075 438.611H562.868C562.548 438.611 562.342 438.394 562.342 438.085V435.982H563.543V437.468H564.4V434.381Z" fill="#EB3333"/>
</g>
<g id="figure 21_2">
<rect id="Rectangle 386_10" x="549.639" y="368.109" width="14.0186" height="13.3435" fill="white" stroke="#EB3333" stroke-width="2.85843"/>
<path id="21" d="M556.921 371.156V373.077L554.863 377.136V377.49H556.921V378.634H553.662V376.976L555.72 372.917V371.774H554.863V372.917H553.662V371.156C553.662 370.847 553.868 370.63 554.188 370.63H556.395C556.715 370.63 556.921 370.847 556.921 371.156ZM557.664 371.774V370.63H559.379V378.634H558.178V371.774H557.664Z" fill="#EB3333"/>
</g>
<g id="figure 8">
<rect id="Rectangle 409" x="639.244" y="428.266" width="41.4745" height="18.7072" transform="rotate(-0.264777 639.244 428.266)" fill="white" stroke="#EB3333" stroke-width="4.2342"/>
<path id="8" d="M662.812 438.847V443.182C662.812 443.64 662.507 443.961 662.033 443.961H658.764C658.29 443.961 657.985 443.64 657.985 443.182V438.847C657.985 438.152 658.307 437.712 658.832 437.525C658.307 437.339 657.985 436.882 657.985 436.204V432.885C657.985 432.427 658.29 432.106 658.764 432.106H662.033C662.507 432.106 662.812 432.427 662.812 432.885V436.204C662.812 436.882 662.49 437.339 661.948 437.525C662.49 437.712 662.812 438.152 662.812 438.847ZM661.034 438.372H659.763V442.268H661.034V438.372ZM659.763 436.679H661.034V433.799H659.763V436.679Z" fill="#EB3333"/>
</g>
<g id="figure 27">
<rect id="Rectangle 409_2" x="775.747" y="326.814" width="53.337" height="61.4831" transform="rotate(-0.264777 775.747 326.814)" fill="white" stroke="#EB3333" stroke-width="4.2342"/>
<path id="8_2" d="M802.537 351.437V354.283L799.488 360.295V360.82H802.537V362.514H797.71V360.058L800.759 354.046V352.352H799.488V354.046H797.71V351.437C797.71 350.98 798.015 350.658 798.489 350.658H801.758C802.232 350.658 802.537 350.98 802.537 351.437ZM804.958 362.514V357.094L806.381 352.352H803.468V350.658H808.21V352.183L806.737 357.094V362.514H804.958Z" fill="#EB3333"/>
</g>
<g id="figure 14">
<rect id="Rectangle 409_3" x="480.805" y="326.814" width="53.337" height="61.4831" transform="rotate(-0.264777 480.805 326.814)" fill="white" stroke="#EB3333" stroke-width="4.2342"/>
<path id="8_3" d="M503.27 352.352V350.658H505.811V362.514H504.032V352.352H503.27ZM511.824 362.514H510.046V360.312H507.082V358.788L509.419 350.658H511.282L508.996 358.619H510.046V357.094L511.824 356.756V358.619H512.502V360.312H511.824V362.514Z" fill="#EB3333"/>
</g>
<g id="figure 29_2">
<path id="Rectangle 409_4" d="M623.016 303.105L658.092 302.996L658.517 364.479L623.441 364.588C606.463 364.64 592.605 350.919 592.488 333.941C592.37 316.964 606.039 303.158 623.016 303.105Z" fill="white" stroke="#EB3333" stroke-width="4.2342"/>
<path id="8_4" d="M627.03 327.638V330.483L623.981 336.496V337.021H627.03V338.714H622.203V336.259L625.251 330.246V328.552H623.981V330.246H622.203V327.638C622.203 327.18 622.507 326.859 622.982 326.859H626.25C626.725 326.859 627.03 327.18 627.03 327.638ZM630.078 331.94H631.348V328.552H630.078V331.94ZM628.299 332.854V327.638C628.299 327.18 628.604 326.859 629.078 326.859H632.347C632.821 326.859 633.126 327.18 633.126 327.638V337.935C633.126 338.393 632.821 338.714 632.347 338.714H629.078C628.604 338.714 628.299 338.393 628.299 337.935V334.819H630.078V337.021H631.348V333.633H629.078C628.604 333.633 628.299 333.312 628.299 332.854Z" fill="#EB3333"/>
</g>
<g id="figure 10">
<rect id="Rectangle 389" x="470.811" y="433.123" width="23.3078" height="38.5998" transform="rotate(-30.2621 470.811 433.123)" fill="white" stroke="#EB3333" stroke-width="4.2342"/>
<path id="10" d="M485.893 440.2V438.507H488.434V450.362H486.655V440.2H485.893ZM491.653 448.669H492.923V440.2H491.653V448.669ZM493.922 450.362H490.654C490.179 450.362 489.875 450.041 489.875 449.583V439.286C489.875 438.828 490.179 438.507 490.654 438.507H493.922C494.397 438.507 494.702 438.828 494.702 439.286V449.583C494.702 450.041 494.397 450.362 493.922 450.362Z" fill="#EB3333"/>
</g>
<g id="figure 25">
<rect id="Rectangle 389_2" x="826.327" y="421.348" width="23.3078" height="38.5998" transform="rotate(30.0364 826.327 421.348)" fill="white" stroke="#EB3333" stroke-width="4.2342"/>
<path id="25" d="M825.857 439.255V442.1L822.809 448.113V448.638H825.857V450.332H821.03V447.876L824.079 441.863V440.169H822.809V441.863H821.03V439.255C821.03 438.798 821.335 438.476 821.809 438.476H825.078C825.552 438.476 825.857 438.798 825.857 439.255ZM830.175 444.065H828.905V444.742H827.127V438.476H831.869V440.169H828.905V442.371H831.175C831.649 442.371 831.954 442.693 831.954 443.15V449.552C831.954 450.01 831.649 450.332 831.175 450.332H827.906C827.432 450.332 827.127 450.01 827.127 449.552V446.436H828.905V448.638H830.175V444.065Z" fill="#EB3333"/>
</g>
<g id="figure 11">
<rect id="Rectangle 389_3" x="532.893" y="510.064" width="23.3078" height="40.5598" transform="rotate(-59.9296 532.893 510.064)" fill="white" stroke="#EB3333" stroke-width="4.2342"/>
<path id="11" d="M552.304 505.796V504.103H554.844V515.958H553.066V505.796H552.304ZM556.116 505.796V504.103H558.656V515.958H556.878V505.796H556.116Z" fill="#EB3333"/>
</g>
<g id="figure 7">
<rect id="Rectangle 382" x="2.98973" y="0.160495" width="22.3529" height="22.7053" transform="matrix(0.668186 0.743995 0.743995 -0.668186 739.792 437.891)" fill="white" stroke="#EB3333" stroke-width="4.2342"/>
<path id="Vector 24" d="M721.61 452.9L732.888 446.966L742 439.5L760 423.5L768.198 414.427L772.723 404.558" stroke="#EB3333" stroke-width="4.22934"/>
<path id="7" d="M756.38 447.574V442.154L757.803 437.412H754.89V435.718H759.632V437.243L758.158 442.154V447.574H756.38Z" fill="#EB3333"/>
</g>
<g id="figure 12">
<rect id="Rectangle 400" x="786.356" y="452.952" width="21.1714" height="24.2729" transform="rotate(45.8872 786.356 452.952)" fill="white" stroke="#EB3333" stroke-width="4.2342"/>
<path id="12" d="M780.107 465.338V463.644H782.648V475.5H780.869V465.338H780.107ZM788.831 464.423V467.269L785.782 473.281V473.806H788.831V475.5H784.004V473.044L787.053 467.032V465.338H785.782V467.032H784.004V464.423C784.004 463.966 784.309 463.644 784.783 463.644H788.052C788.526 463.644 788.831 463.966 788.831 464.423Z" fill="#EB3333"/>
</g>
<g id="figure 6">
<rect id="Rectangle 398" x="701.117" y="511.79" width="15.7658" height="87.0929" fill="white" stroke="#EB3333" stroke-width="4.2342"/>
<path id="6" d="M709.112 553.411H707.842V557.306H709.112V553.411ZM710.89 547.923V550.532H709.112V548.838H707.842V551.717H710.111C710.585 551.717 710.89 552.039 710.89 552.496V558.221C710.89 558.678 710.585 559 710.111 559H706.842C706.368 559 706.063 558.678 706.063 558.221V547.923C706.063 547.466 706.368 547.144 706.842 547.144H710.111C710.585 547.144 710.89 547.466 710.89 547.923Z" fill="#EB3333"/>
</g>
<g id="figure 22">
<rect id="Rectangle 398_2" x="598.117" y="507.117" width="16.7658" height="69.7658" fill="white" stroke="#EB3333" stroke-width="4.2342"/>
<path id="22" d="M606.283 537.19V539.71L603.583 545.035V545.5H606.283V547H602.008V544.825L604.708 539.5V538H603.583V539.5H602.008V537.19C602.008 536.785 602.278 536.5 602.698 536.5H605.593C606.013 536.5 606.283 536.785 606.283 537.19ZM611.608 537.19V539.71L608.908 545.035V545.5H611.608V547H607.333V544.825L610.033 539.5V538H608.908V539.5H607.333V537.19C607.333 536.785 607.603 536.5 608.023 536.5H610.918C611.338 536.5 611.608 536.785 611.608 537.19Z" fill="#EB3333"/>
</g>
<g id="figure 5">
<rect id="Rectangle 409_5" x="2.12423" y="2.10374" width="18.682" height="20.6215" transform="matrix(0.99998 -0.0063036 0.00338782 0.999994 445.993 579.158)" fill="white" stroke="#EB3333" stroke-width="4.2342"/>
<path id="5" d="M458.37 591.127H457.1V591.805H455.321V585.538H460.064V587.232H457.1V589.434H459.369C459.844 589.434 460.148 589.756 460.148 590.213V596.615C460.148 597.072 459.844 597.394 459.369 597.394H456.1C455.626 597.394 455.321 597.072 455.321 596.615V593.499H457.1V595.7H458.37V591.127Z" fill="#EB3333"/>
</g>
<g id="figure 4">
<rect id="Rectangle 383" x="448.117" y="554.117" width="18.7658" height="20.7658" fill="white" stroke="#EB3333" stroke-width="4.2342"/>
<path id="4" d="M459.686 570.333H457.907V568.131H454.943V566.607L457.281 558.477H459.144L456.857 566.438H457.907V564.913L459.686 564.574V566.438H460.363V568.131H459.686V570.333Z" fill="#EB3333"/>
</g>
<g id="figure 3">
<rect id="Rectangle 379" x="475.117" y="554.117" width="47.7658" height="38.7658" fill="white" stroke="#EB3333" stroke-width="4.2342"/>
<path id="3" d="M500.66 579.527H497.391C496.917 579.527 496.612 579.206 496.612 578.748V575.632H498.39V577.834H499.66V573.633H497.882V572.058L499.491 569.365H496.697V567.672H501.354V569.196L499.728 571.94H500.66C501.134 571.94 501.439 572.261 501.439 572.719V578.748C501.439 579.206 501.134 579.527 500.66 579.527Z" fill="#EB3333"/>
</g>
<g id="figure 25-1">
<rect id="Rectangle 379_2" x="819.396" y="557.792" width="33.1691" height="38.7658" fill="white" stroke="#EB3333" stroke-width="4.2342"/>
<path id="25_2" d="M835.323 572.126V574.971L832.274 580.984V581.509H835.323V583.203H830.496V580.747L833.544 574.734V573.041H832.274V574.734H830.496V572.126C830.496 571.669 830.8 571.347 831.275 571.347H834.543C835.018 571.347 835.323 571.669 835.323 572.126ZM839.641 576.936H838.371V577.613H836.592V571.347H841.334V573.041H838.371V575.242H840.64C841.114 575.242 841.419 575.564 841.419 576.021V582.424C841.419 582.881 841.114 583.203 840.64 583.203H837.371C836.897 583.203 836.592 582.881 836.592 582.424V579.307H838.371V581.509H839.641V576.936Z" fill="#EB3333"/>
</g>
<g id="figure 25-2">
<rect id="Rectangle 379_3" x="864.956" y="557.792" width="33.1691" height="38.7658" fill="white" stroke="#EB3333" stroke-width="4.2342"/>
<path id="25_3" d="M880.883 572.126V574.971L877.834 580.984V581.509H880.883V583.203H876.056V580.747L879.104 574.734V573.041H877.834V574.734H876.056V572.126C876.056 571.669 876.361 571.347 876.835 571.347H880.104C880.578 571.347 880.883 571.669 880.883 572.126ZM885.201 576.936H883.931V577.613H882.152V571.347H886.895V573.041H883.931V575.242H886.2C886.674 575.242 886.979 575.564 886.979 576.021V582.424C886.979 582.881 886.674 583.203 886.2 583.203H882.931C882.457 583.203 882.152 582.881 882.152 582.424V579.307H883.931V581.509H885.201V576.936Z" fill="#EB3333"/>
</g>
<g id="figure 25-3">
<rect id="Rectangle 379_4" x="910.517" y="557.792" width="33.1691" height="38.7658" fill="white" stroke="#EB3333" stroke-width="4.2342"/>
<path id="25_4" d="M926.443 572.126V574.971L923.395 580.984V581.509H926.443V583.203H921.616V580.747L924.665 574.734V573.041H923.395V574.734H921.616V572.126C921.616 571.669 921.921 571.347 922.395 571.347H925.664C926.138 571.347 926.443 571.669 926.443 572.126ZM930.761 576.936H929.491V577.613H927.713V571.347H932.455V573.041H929.491V575.242H931.761C932.235 575.242 932.54 575.564 932.54 576.021V582.424C932.54 582.881 932.235 583.203 931.761 583.203H928.492C928.018 583.203 927.713 582.881 927.713 582.424V579.307H929.491V581.509H930.761V576.936Z" fill="#EB3333"/>
</g>
<g id="figure 1">
<rect id="Rectangle 378" x="647.623" y="471.117" width="21.2596" height="85.7658" fill="white" stroke="#EB3333" stroke-width="4.2342"/>
<path id="1" d="M656.632 511.511V509.817H659.173V521.673H657.394V511.511H656.632Z" fill="#EB3333"/>
</g>
<g id="figure 30_2">
<path id="Rectangle 410" d="M697.612 364.563L659.303 364.563L659.303 303.08L697.612 303.08C714.59 303.08 728.353 316.844 728.353 333.822C728.353 350.8 714.59 364.563 697.612 364.563Z" fill="white" stroke="#EB3333" stroke-width="4.2342"/>
<path id="10_2" d="M684.626 338.72H681.357C680.883 338.72 680.578 338.398 680.578 337.941V334.824H682.357V337.026H683.627V332.826H681.849V331.251L683.458 328.558H680.663V326.864H685.321V328.388L683.695 331.132H684.626C685.1 331.132 685.405 331.454 685.405 331.911V337.941C685.405 338.398 685.1 338.72 684.626 338.72ZM688.534 337.026H689.804V328.558H688.534V337.026ZM690.803 338.72H687.535C687.06 338.72 686.756 338.398 686.756 337.941V327.643C686.756 327.186 687.06 326.864 687.535 326.864H690.803C691.278 326.864 691.583 327.186 691.583 327.643V337.941C691.583 338.398 691.278 338.72 690.803 338.72Z" fill="#EB3333"/>
</g>
</g>
</svg>
