<svg class="map__scheme" width="1522" height="836" viewBox="0 0 1522 836" fill="none" xmlns="http://www.w3.org/2000/svg">
    <g id="Group 37585">
        <g class="figure figure_12" id="figure 12">
            <rect id="Rectangle 386" x="648.117" y="564.117" width="20.7658" height="23.7658" fill="white" stroke="#EB3333" stroke-width="4.2342" />
            <path
                id="12"
                d="M654.018 572.107V570.413H656.558V582.269H654.78V572.107H654.018ZM662.741 571.192V574.038L659.693 580.05V580.575H662.741V582.269H657.914V579.813L660.963 573.801V572.107H659.693V573.801H657.914V571.192C657.914 570.735 658.219 570.413 658.693 570.413H661.962C662.436 570.413 662.741 570.735 662.741 571.192Z"
                fill="#EB3333"
            />
        </g>
        <g class="figure figure_24" id="figure 24">
            <rect id="Rectangle 394" x="338.117" y="554.117" width="82.7658" height="55.7658" fill="white" stroke="#EB3333" stroke-width="4.2342" />
            <path
                id="24"
                d="M378.193 577.923V580.769L375.144 586.781V587.306H378.193V589H373.366V586.544L376.414 580.532V578.838H375.144V580.532H373.366V577.923C373.366 577.466 373.671 577.144 374.145 577.144H377.414C377.888 577.144 378.193 577.466 378.193 577.923ZM384.035 589H382.257V586.798H379.293V585.274L381.63 577.144H383.493L381.207 585.105H382.257V583.58L384.035 583.241V585.105H384.713V586.798H384.035V589Z"
                fill="#EB3333"
            />
        </g>
        <g class="figure figure_21" id="figure 21">
            <rect id="Rectangle 401" x="634.952" y="599.117" width="20.7658" height="19.7658" fill="white" stroke="#EB3333" stroke-width="4.2342" />
            <path
                id="21"
                d="M645.904 603.845V606.69L642.855 612.703V613.228H645.904V614.921H641.077V612.466L644.126 606.453V604.759H642.855V606.453H641.077V603.845C641.077 603.387 641.382 603.066 641.856 603.066H645.125C645.599 603.066 645.904 603.387 645.904 603.845ZM647.004 604.759V603.066H649.545V614.921H647.766V604.759H647.004Z"
                fill="#EB3333"
            />
        </g>
        <g class="figure figure_22" id="figure 22">
            <rect id="Rectangle 401_2" x="662.952" y="599.117" width="20.7658" height="19.7658" fill="white" stroke="#EB3333" stroke-width="4.2342" />
            <path
                id="22"
                d="M672.804 603.845V606.69L669.756 612.703V613.228H672.804V614.921H667.977V612.466L671.026 606.453V604.759H669.756V606.453H667.977V603.845C667.977 603.387 668.282 603.066 668.756 603.066H672.025C672.499 603.066 672.804 603.387 672.804 603.845ZM678.816 603.845V606.69L675.767 612.703V613.228H678.816V614.921H673.989V612.466L677.038 606.453V604.759H675.767V606.453H673.989V603.845C673.989 603.387 674.294 603.066 674.768 603.066H678.037C678.511 603.066 678.816 603.387 678.816 603.845Z"
                fill="#EB3333"
            />
        </g>
        <g class="figure figure_23" id="figure 23">
            <rect id="Rectangle 401_3" x="674.886" y="464.534" width="15.1658" height="14.4355" fill="white" stroke="#EB3333" stroke-width="3.09235" />
            <path
                id="23"
                d="M682.021 468.223V470.301L679.795 474.693V475.076H682.021V476.313H678.496V474.519L680.722 470.128V468.891H679.795V470.128H678.496V468.223C678.496 467.889 678.719 467.654 679.065 467.654H681.452C681.798 467.654 682.021 467.889 682.021 468.223ZM685.905 476.313H683.517C683.171 476.313 682.948 476.078 682.948 475.744V473.468H684.247V475.076H685.175V472.008H683.876V470.858L685.051 468.891H683.01V467.654H686.412V468.768L685.224 470.772H685.905C686.251 470.772 686.474 471.007 686.474 471.34V475.744C686.474 476.078 686.251 476.313 685.905 476.313Z"
                fill="#EB3333"
            />
        </g>
        <g class="figure figure_14" id="figure 14">
            <rect id="Rectangle 401_4" x="696.066" y="464.534" width="15.1658" height="14.4355" fill="white" stroke="#EB3333" stroke-width="3.09235" />
            <path
                id="14"
                d="M700.32 468.891V467.654H702.176V476.313H700.877V468.891H700.32ZM706.568 476.313H705.269V474.705H703.104V473.592L704.811 467.654H706.172L704.502 473.468H705.269V472.355L706.568 472.107V473.468H707.063V474.705H706.568V476.313Z"
                fill="#EB3333"
            />
        </g>
        <g class="figure figure_30" id="figure 30">
            <rect id="Rectangle 401_5" x="700.002" y="444.699" width="15.1658" height="14.4355" fill="white" stroke="#EB3333" stroke-width="3.09235" />
            <path
                id="30"
                d="M706.57 456.477H704.183C703.836 456.477 703.614 456.242 703.614 455.908V453.632H704.912V455.24H705.84V452.173H704.541V451.022L705.716 449.055H703.675V447.818H707.077V448.932L705.889 450.936H706.57C706.916 450.936 707.139 451.171 707.139 451.505V455.908C707.139 456.242 706.916 456.477 706.57 456.477ZM709.424 455.24H710.351V449.055H709.424V455.24ZM711.081 456.477H708.694C708.348 456.477 708.125 456.242 708.125 455.908V448.387C708.125 448.053 708.348 447.818 708.694 447.818H711.081C711.428 447.818 711.65 448.053 711.65 448.387V455.908C711.65 456.242 711.428 456.477 711.081 456.477Z"
                fill="#EB3333"
            />
        </g>
        <g class="figure figure_29" id="figure 29">
            <rect id="Rectangle 401_6" x="103.95" y="504.523" width="19.0917" height="18.1723" fill="white" stroke="#EB3333" stroke-width="3.89285" />
            <path
                id="29"
                d="M112.932 508.836V511.452L110.129 516.98V517.463H112.932V519.02H108.494V516.762L111.297 511.234V509.677H110.129V511.234H108.494V508.836C108.494 508.416 108.775 508.12 109.211 508.12H112.216C112.652 508.12 112.932 508.416 112.932 508.836ZM115.734 512.791H116.902V509.677H115.734V512.791ZM114.099 513.632V508.836C114.099 508.416 114.38 508.12 114.816 508.12H117.821C118.257 508.12 118.537 508.416 118.537 508.836V518.304C118.537 518.724 118.257 519.02 117.821 519.02H114.816C114.38 519.02 114.099 518.724 114.099 518.304V515.439H115.734V517.463H116.902V514.349H114.816C114.38 514.349 114.099 514.053 114.099 513.632Z"
                fill="#EB3333"
            />
        </g>
        <g class="figure figure_20" id="figure 20">
            <rect id="Rectangle 386_2" x="592.117" y="458.117" width="20.7658" height="42.7658" fill="white" stroke="#EB3333" stroke-width="4.2342" />
            <path
                id="20"
                d="M601.825 475.346V478.191L598.777 484.204V484.729H601.825V486.422H596.998V483.967L600.047 477.954V476.26H598.777V477.954H596.998V475.346C596.998 474.888 597.303 474.567 597.777 474.567H601.046C601.52 474.567 601.825 474.888 601.825 475.346ZM604.873 484.729H606.143V476.26H604.873V484.729ZM607.143 486.422H603.874C603.4 486.422 603.095 486.101 603.095 485.643V475.346C603.095 474.888 603.4 474.567 603.874 474.567H607.143C607.617 474.567 607.922 474.888 607.922 475.346V485.643C607.922 486.101 607.617 486.422 607.143 486.422Z"
                fill="#EB3333"
            />
        </g>
        <g class="figure figure_19" id="figure 19">
            <rect id="Rectangle 386_3" x="619.117" y="458.117" width="20.7658" height="19.7658" fill="white" stroke="#EB3333" stroke-width="4.2342" />
            <path
                id="19"
                d="M624.91 463.694V462H627.45V473.856H625.672V463.694H624.91ZM630.67 467.081H631.94V463.694H630.67V467.081ZM628.891 467.996V462.779C628.891 462.322 629.196 462 629.67 462H632.939C633.413 462 633.718 462.322 633.718 462.779V473.077C633.718 473.534 633.413 473.856 632.939 473.856H629.67C629.196 473.856 628.891 473.534 628.891 473.077V469.96H630.67V472.162H631.94V468.775H629.67C629.196 468.775 628.891 468.453 628.891 467.996Z"
                fill="#EB3333"
            />
        </g>
        <g class="figure figure_18" id="figure 18">
            <rect id="Rectangle 386_4" x="523.937" y="387.51" width="14.0186" height="13.3435" fill="white" stroke="#EB3333" stroke-width="2.85843" />
            <path
                id="18"
                d="M527.847 391.174V390.031H529.562V398.035H528.361V391.174H527.847ZM533.793 394.582V397.509C533.793 397.817 533.587 398.035 533.267 398.035H531.06C530.74 398.035 530.534 397.817 530.534 397.509V394.582C530.534 394.113 530.752 393.816 531.106 393.69C530.752 393.564 530.534 393.255 530.534 392.798V390.557C530.534 390.248 530.74 390.031 531.06 390.031H533.267C533.587 390.031 533.793 390.248 533.793 390.557V392.798C533.793 393.255 533.576 393.564 533.21 393.69C533.576 393.816 533.793 394.113 533.793 394.582ZM532.592 394.262H531.735V396.891H532.592V394.262ZM531.735 393.118H532.592V391.174H531.735V393.118Z"
                fill="#EB3333"
            />
        </g>
        <g class="figure figure_17" id="figure 17">
            <rect id="Rectangle 386_5" x="652.458" y="725.801" width="14.0186" height="13.3435" fill="white" stroke="#EB3333" stroke-width="2.85843" />
            <path id="17" d="M656.624 729.464V728.321H658.339V736.325H657.139V729.464H656.624ZM660.09 736.325V732.666L661.05 729.464H659.084V728.321H662.285V729.35L661.29 732.666V736.325H660.09Z" fill="#EB3333" />
        </g>
        <g class="figure figure_16" id="figure 16">
            <rect id="Rectangle 409" x="652.132" y="709.667" width="14.2689" height="12.6289" transform="rotate(-0.264777 652.132 709.667)" fill="white" stroke="#EB3333" stroke-width="2.85843" />
            <path
                id="16"
                d="M656.368 712.659V711.515H658.083V719.519H656.882V712.659H656.368ZM661.113 715.746H660.256V718.376H661.113V715.746ZM662.314 712.041V713.802H661.113V712.659H660.256V714.603H661.788C662.108 714.603 662.314 714.82 662.314 715.128V718.993C662.314 719.302 662.108 719.519 661.788 719.519H659.581C659.261 719.519 659.055 719.302 659.055 718.993V712.041C659.055 711.733 659.261 711.515 659.581 711.515H661.788C662.108 711.515 662.314 711.733 662.314 712.041Z"
                fill="#EB3333"
            />
        </g>
        <g class="figure figure_15" id="figure 15">
            <rect id="Rectangle 409_2" x="652.132" y="692.795" width="14.2689" height="12.6289" transform="rotate(-0.264777 652.132 692.795)" fill="white" stroke="#EB3333" stroke-width="2.85843" />
            <path
                id="15"
                d="M656.368 695.786V694.642H658.083V702.646H656.882V695.786H656.368ZM661.113 698.416H660.256V698.873H659.055V694.642H662.257V695.786H660.256V697.272H661.788C662.108 697.272 662.314 697.489 662.314 697.798V702.12C662.314 702.429 662.108 702.646 661.788 702.646H659.581C659.261 702.646 659.055 702.429 659.055 702.12V700.016H660.256V701.503H661.113V698.416Z"
                fill="#EB3333"
            />
        </g>
        <g class="figure figure_25" id="figure 25">
            <rect id="Rectangle 409_3" x="652.132" y="676.261" width="14.2689" height="12.6289" transform="rotate(-0.264777 652.132 676.261)" fill="white" stroke="#EB3333" stroke-width="2.85843" />
            <path
                id="25"
                d="M658.941 678.635V680.556L656.883 684.615V684.969H658.941V686.113H655.682V684.455L657.74 680.396V679.253H656.883V680.396H655.682V678.635C655.682 678.326 655.888 678.109 656.208 678.109H658.415C658.735 678.109 658.941 678.326 658.941 678.635ZM661.856 681.882H660.998V682.34H659.798V678.109H662.999V679.253H660.998V680.739H662.531C662.851 680.739 663.057 680.956 663.057 681.265V685.587C663.057 685.896 662.851 686.113 662.531 686.113H660.324C660.004 686.113 659.798 685.896 659.798 685.587V683.483H660.998V684.969H661.856V681.882Z"
                fill="#EB3333"
            />
        </g>
        <!-- <g class="figure figure_7" id="figure 7">
            <rect id="Rectangle 409_4" x="633.312" y="428.294" width="53.337" height="18.7072" transform="rotate(-0.264777 633.312 428.294)" fill="white" stroke="#EB3333" stroke-width="4.2342" />
            <path id="8" d="M659.517 443.961V438.542L660.94 433.799H658.027V432.106H662.769V433.63L661.296 438.542V443.961H659.517Z" fill="#EB3333" />
        </g> -->
        <g class="figure figure_8" id="figure 8">
            <rect id="Rectangle 409_5" x="593.548" y="411.742" width="27.6493" height="18.7072" transform="rotate(21.3352 593.548 411.742)" fill="white" stroke="#EB3333" stroke-width="4.2342" />
            <path
                id="8_2"
                d="M605.434 426.809V431.145C605.434 431.602 605.129 431.924 604.655 431.924H601.386C600.912 431.924 600.607 431.602 600.607 431.145V426.809C600.607 426.115 600.929 425.674 601.454 425.488C600.929 425.302 600.607 424.844 600.607 424.167V420.847C600.607 420.39 600.912 420.068 601.386 420.068H604.655C605.129 420.068 605.434 420.39 605.434 420.847V424.167C605.434 424.844 605.112 425.302 604.57 425.488C605.112 425.674 605.434 426.115 605.434 426.809ZM603.656 426.335H602.386V430.23H603.656V426.335ZM602.386 424.641H603.656V421.762H602.386V424.641Z"
                fill="#EB3333"
            />
        </g>
        <g class="figure figure_11" id="figure 11">
            <rect id="Rectangle 409_6" x="-1.20176" y="2.74226" width="27.6493" height="18.7072" transform="matrix(-0.931468 0.363824 0.363824 0.931468 729.379 406.625)" fill="white" stroke="#EB3333" stroke-width="4.2342" />
            <path id="11" d="M718.723 418.762V417.068H721.263V428.924H719.485V418.762H718.723ZM722.535 418.762V417.068H725.075V428.924H723.297V418.762H722.535Z" fill="#EB3333" />
        </g>
        <g class="figure figure_9" id="figure 9">
            <rect id="Rectangle 389" x="470.811" y="433.123" width="23.3078" height="38.5998" transform="rotate(-30.2621 470.811 433.123)" fill="white" stroke="#EB3333" stroke-width="4.2342" />
            <path
                id="9"
                d="M489.747 443.588H491.017V440.2H489.747V443.588ZM487.969 444.502V439.286C487.969 438.828 488.273 438.507 488.748 438.507H492.016C492.491 438.507 492.796 438.828 492.796 439.286V449.583C492.796 450.041 492.491 450.362 492.016 450.362H488.748C488.273 450.362 487.969 450.041 487.969 449.583V446.467H489.747V448.669H491.017V445.281H488.748C488.273 445.281 487.969 444.959 487.969 444.502Z"
                fill="#EB3333"
            />
        </g>
        <g class="figure figure_27" id="figure 27">
            <rect id="Rectangle 389_2" x="554.273" y="522.77" width="23.3078" height="18.8088" transform="rotate(-59.9296 554.273 522.77)" fill="white" stroke="#EB3333" stroke-width="4.2342" />
            <path
                id="27"
                d="M568.102 511.923V514.769L565.053 520.781V521.306H568.102V523H563.275V520.544L566.324 514.532V512.838H565.053V514.532H563.275V511.923C563.275 511.466 563.58 511.144 564.054 511.144H567.323C567.797 511.144 568.102 511.466 568.102 511.923ZM570.523 523V517.58L571.946 512.838H569.033V511.144H573.775V512.669L572.302 517.58V523H570.523Z"
                fill="#EB3333"
            />
        </g>
        <g class="figure figure_26" id="figure 26">
            <rect id="Rectangle 389_3" x="532.893" y="510.064" width="23.3078" height="18.8088" transform="rotate(-59.9296 532.893 510.064)" fill="white" stroke="#EB3333" stroke-width="4.2342" />
            <path
                id="26"
                d="M546.342 499.217V502.062L543.293 508.075V508.6H546.342V510.293H541.515V507.838L544.563 501.825V500.131H543.293V501.825H541.515V499.217C541.515 498.759 541.819 498.438 542.294 498.438H545.562C546.037 498.438 546.342 498.759 546.342 499.217ZM550.66 504.704H549.39V508.6H550.66V504.704ZM552.438 499.217V501.825H550.66V500.131H549.39V503.011H551.659C552.133 503.011 552.438 503.332 552.438 503.79V509.514C552.438 509.972 552.133 510.293 551.659 510.293H548.39C547.916 510.293 547.611 509.972 547.611 509.514V499.217C547.611 498.759 547.916 498.438 548.39 498.438H551.659C552.133 498.438 552.438 498.759 552.438 499.217Z"
                fill="#EB3333"
            />
        </g>
        <g class="figure figure_6" id="figure 6">
            <rect id="Rectangle 382" x="2.98973" y="0.160495" width="22.3529" height="22.7053" transform="matrix(0.668186 0.743995 0.743995 -0.668186 739.792 437.891)" fill="white" stroke="#EB3333" stroke-width="4.2342" />
            <path id="Vector 24" d="M721.61 452.9L732.888 446.966L742 439.5L760 423.5L768.198 414.427L772.723 404.558" stroke="#EB3333" stroke-width="4.22934" />
            <path
                id="6"
                d="M757.897 441.985H756.626V445.881H757.897V441.985ZM759.675 436.498V439.106H757.897V437.412H756.626V440.291H758.896C759.37 440.291 759.675 440.613 759.675 441.07V446.795C759.675 447.252 759.37 447.574 758.896 447.574H755.627C755.153 447.574 754.848 447.252 754.848 446.795V436.498C754.848 436.04 755.153 435.718 755.627 435.718H758.896C759.37 435.718 759.675 436.04 759.675 436.498Z"
                fill="#EB3333"
            />
        </g>
        <g class="figure figure_13" id="figure 13">
            <rect id="Rectangle 382_2" x="573.818" y="439.45" width="22.3529" height="22.7053" transform="rotate(131.927 573.818 439.45)" fill="white" stroke="#EB3333" stroke-width="4.2342" />
            <path id="Vector 24_2" d="M594.118 452.342L582.84 446.408L573.728 438.942L555.728 422.942L547.529 413.868L543.005 404" stroke="#EB3333" stroke-width="4.22934" />
            <path
                id="13"
                d="M553.982 436.854V435.16H556.522V447.016H554.744V436.854H553.982ZM562.011 447.016H558.743C558.268 447.016 557.963 446.694 557.963 446.237V443.121H559.742V445.322H561.012V441.122H559.234V439.547L560.843 436.854H558.048V435.16H562.706V436.685L561.08 439.428H562.011C562.486 439.428 562.79 439.75 562.79 440.208V446.237C562.79 446.694 562.486 447.016 562.011 447.016Z"
                fill="#EB3333"
            />
        </g>
        <g class="figure figure_28" id="figure 28">
            <rect id="Rectangle 400" x="772.72" y="492.172" width="21.1714" height="40.538" transform="rotate(59.8783 772.72 492.172)" fill="white" stroke="#EB3333" stroke-width="4.2342" />
            <path
                id="28"
                d="M759.325 506.923V509.769L756.277 515.781V516.306H759.325V518H754.498V515.544L757.547 509.532V507.838H756.277V509.532H754.498V506.923C754.498 506.466 754.803 506.144 755.277 506.144H758.546C759.02 506.144 759.325 506.466 759.325 506.923ZM765.422 512.885V517.221C765.422 517.678 765.117 518 764.643 518H761.374C760.9 518 760.595 517.678 760.595 517.221V512.885C760.595 512.191 760.917 511.75 761.442 511.564C760.917 511.378 760.595 510.92 760.595 510.243V506.923C760.595 506.466 760.9 506.144 761.374 506.144H764.643C765.117 506.144 765.422 506.466 765.422 506.923V510.243C765.422 510.92 765.1 511.378 764.558 511.564C765.1 511.75 765.422 512.191 765.422 512.885ZM763.643 512.411H762.373V516.306H763.643V512.411ZM762.373 510.717H763.643V507.838H762.373V510.717Z"
                fill="#EB3333"
            />
        </g>
        <g class="figure figure_5" id="figure 5">
            <rect id="Rectangle 398" x="701.117" y="546.57" width="15.7658" height="52.3132" fill="white" stroke="#EB3333" stroke-width="4.2342" />
            <path
                id="5"
                d="M709.112 572.649H707.842V573.327H706.063V567.06H710.805V568.754H707.842V570.956H710.111C710.585 570.956 710.89 571.278 710.89 571.735V578.137C710.89 578.594 710.585 578.916 710.111 578.916H706.842C706.368 578.916 706.063 578.594 706.063 578.137V575.021H707.842V577.222H709.112V572.649Z"
                fill="#EB3333"
            />
        </g>
        <g class="figure figure_10" id="figure 10">
            <rect id="Rectangle 398_2" x="701.117" y="486.117" width="15.7658" height="54.3132" fill="white" stroke="#EB3333" stroke-width="4.2342" />
            <path
                id="10"
                d="M703.988 509.096V507.403H706.528V519.258H704.75V509.096H703.988ZM709.748 517.565H711.018V509.096H709.748V517.565ZM712.017 519.258H708.748C708.274 519.258 707.969 518.937 707.969 518.479V508.182C707.969 507.724 708.274 507.403 708.748 507.403H712.017C712.491 507.403 712.796 507.724 712.796 508.182V518.479C712.796 518.937 712.491 519.258 712.017 519.258Z"
                fill="#EB3333"
            />
        </g>
        <g class="figure figure_4" id="figure 4">
            <rect id="Rectangle 409_7" x="2.12423" y="2.10374" width="18.682" height="20.6215" transform="matrix(0.99998 -0.0063036 0.00338782 0.999994 445.993 579.158)" fill="white" stroke="#EB3333" stroke-width="4.2342" />
            <path id="4" d="M459.762 597.394H457.984V595.192H455.02V593.668L457.357 585.538H459.22L456.934 593.499H457.984V591.974L459.762 591.636V593.499H460.439V595.192H459.762V597.394Z" fill="#EB3333" />
        </g>
        <g class="figure figure_3" id="figure 3">
            <rect id="Rectangle 383" x="448.117" y="554.117" width="18.7658" height="20.7658" fill="white" stroke="#EB3333" stroke-width="4.2342" />
            <path
                id="3"
                d="M459.293 570.333H456.024C455.55 570.333 455.245 570.011 455.245 569.554V566.438H457.024V568.639H458.294V564.439H456.515V562.864L458.124 560.171H455.33V558.477H459.987V560.002L458.362 562.745H459.293C459.767 562.745 460.072 563.067 460.072 563.524V569.554C460.072 570.011 459.767 570.333 459.293 570.333Z"
                fill="#EB3333"
            />
        </g>
        <g class="figure figure_2" id="figure 2">
            <rect id="Rectangle 379" x="475.117" y="554.117" width="47.7658" height="38.7658" fill="white" stroke="#EB3333" stroke-width="4.2342" />
            <path
                id="2"
                d="M501.437 568.451V571.296L498.388 577.309V577.834H501.437V579.527H496.61V577.072L499.658 571.059V569.365H498.388V571.059H496.61V568.451C496.61 567.993 496.915 567.672 497.389 567.672H500.658C501.132 567.672 501.437 567.993 501.437 568.451Z"
                fill="#EB3333"
            />
        </g>
        <g class="figure figure_1" id="figure 1">
            <rect id="Rectangle 378" x="647.623" y="471.117" width="21.2596" height="85.7658" fill="white" stroke="#EB3333" stroke-width="4.2342" />
            <path id="1" d="M656.632 511.511V509.817H659.173V521.673H657.394V511.511H656.632Z" fill="#EB3333" />
        </g>
    </g>
</svg>
