<svg width="59" height="59" viewBox="0 0 59 59" fill="none" xmlns="http://www.w3.org/2000/svg">
<ellipse cx="29.5" cy="30" rx="25.5" ry="26" fill="white"/>
<path fill-rule="evenodd" clip-rule="evenodd" d="M29.5 54.0333C43.0494 54.0333 54.0333 43.0494 54.0333 29.5C54.0333 15.9506 43.0494 4.96666 29.5 4.96666C15.9506 4.96666 4.96666 15.9506 4.96666 29.5C4.96666 43.0494 15.9506 54.0333 29.5 54.0333ZM29.5 59C45.7924 59 59 45.7924 59 29.5C59 13.2076 45.7924 0 29.5 0C13.2076 0 0 13.2076 0 29.5C0 45.7924 13.2076 59 29.5 59Z" fill="#EB3333"/>
<path d="M29.3955 15L13.3955 38H45.3955L29.3955 15Z" fill="#EB3333"/>
</svg>
