<svg width="41" height="41" viewBox="0 0 41 41" fill="none" xmlns="http://www.w3.org/2000/svg">
<path d="M20.1699 0C31.3095 6.59725e-05 40.3398 9.03035 40.3398 20.1699C40.3397 31.3094 31.3094 40.3398 20.1699 40.3398C9.03038 40.3398 9.89646e-05 31.3094 0 20.1699C0 9.03031 9.03031 0 20.1699 0ZM12.7109 8.35742V10.7197H11.5312C10.8819 10.7197 10.3257 10.9515 9.86328 11.4141C9.40089 11.8767 9.16992 12.4333 9.16992 13.083V29.6191C9.16992 30.2688 9.40089 30.8254 9.86328 31.2881C10.3256 31.7506 10.882 31.9814 11.5312 31.9814H28.0586C28.7078 31.9814 29.2642 31.7506 29.7266 31.2881C30.189 30.8254 30.4199 30.2688 30.4199 29.6191V13.083C30.4199 12.4334 30.189 11.8767 29.7266 11.4141C29.2642 10.9514 28.7079 10.7197 28.0586 10.7197H26.8779V8.35742H24.5176V10.7197H15.0723V8.35742H12.7109ZM28.0586 17.8076V29.6191H11.5312V17.8076H28.0586ZM15.0723 24.8945C14.7379 24.8946 14.4577 25.008 14.2314 25.2344C14.0052 25.4608 13.8916 25.7415 13.8916 26.0762C13.8917 26.4106 14.0054 26.6907 14.2314 26.917C14.4577 27.1433 14.7379 27.2568 15.0723 27.2568C15.4068 27.2568 15.6878 27.1434 15.9141 26.917C16.14 26.6908 16.2528 26.4105 16.2529 26.0762C16.2529 25.7417 16.1401 25.4607 15.9141 25.2344C15.6878 25.008 15.4068 24.8945 15.0723 24.8945ZM19.7949 24.8945C19.4605 24.8945 19.1804 25.008 18.9541 25.2344C18.7278 25.4608 18.6143 25.7415 18.6143 26.0762C18.6144 26.4106 18.7279 26.6907 18.9541 26.917C19.1804 27.1434 19.4604 27.2568 19.7949 27.2568C20.1294 27.2568 20.4095 27.1434 20.6357 26.917C20.8619 26.6907 20.9755 26.4106 20.9756 26.0762C20.9756 25.7415 20.862 25.4608 20.6357 25.2344C20.4095 25.008 20.1294 24.8945 19.7949 24.8945ZM24.5176 24.8945C24.1831 24.8945 23.9021 25.008 23.6758 25.2344C23.4497 25.4607 23.3369 25.7416 23.3369 26.0762C23.337 26.4105 23.4498 26.6908 23.6758 26.917C23.9021 27.1434 24.1831 27.2568 24.5176 27.2568C24.8519 27.2568 25.1322 27.1433 25.3584 26.917C25.5845 26.6907 25.6981 26.4106 25.6982 26.0762C25.6982 25.7416 25.5846 25.4607 25.3584 25.2344C25.1322 25.0081 24.8519 24.8946 24.5176 24.8945ZM15.0723 20.1699C14.7379 20.17 14.4577 20.2834 14.2314 20.5098C14.0054 20.7361 13.8917 21.0162 13.8916 21.3506C13.8916 21.6852 14.0052 21.966 14.2314 22.1924C14.4577 22.4187 14.7379 22.5322 15.0723 22.5322C15.4068 22.5322 15.6878 22.4188 15.9141 22.1924C16.1402 21.966 16.2529 21.6851 16.2529 21.3506C16.2529 21.0163 16.14 20.736 15.9141 20.5098C15.6878 20.2834 15.4068 20.1699 15.0723 20.1699ZM19.7949 20.1699C19.4604 20.1699 19.1804 20.2834 18.9541 20.5098C18.7279 20.7361 18.6143 21.0161 18.6143 21.3506C18.6143 21.6853 18.7278 21.966 18.9541 22.1924C19.1804 22.4187 19.4605 22.5322 19.7949 22.5322C20.1294 22.5322 20.4095 22.4187 20.6357 22.1924C20.862 21.966 20.9756 21.6853 20.9756 21.3506C20.9755 21.0161 20.8619 20.7361 20.6357 20.5098C20.4095 20.2834 20.1294 20.1699 19.7949 20.1699ZM24.5176 20.1699C24.1831 20.1699 23.9021 20.2834 23.6758 20.5098C23.4498 20.736 23.337 21.0162 23.3369 21.3506C23.3369 21.6852 23.4496 21.966 23.6758 22.1924C23.9021 22.4188 24.1831 22.5322 24.5176 22.5322C24.8519 22.5321 25.1322 22.4187 25.3584 22.1924C25.5846 21.966 25.6982 21.6852 25.6982 21.3506C25.6982 21.0162 25.5844 20.736 25.3584 20.5098C25.1322 20.2835 24.8519 20.17 24.5176 20.1699ZM28.0586 13.083V15.4453H11.5312V13.083H28.0586Z" fill="#ED951D"/>
</svg>
