<svg width="41" height="41" viewBox="0 0 41 41" fill="none" xmlns="http://www.w3.org/2000/svg">
<path d="M20.1699 0C31.3095 6.59718e-05 40.3398 9.03037 40.3398 20.1699C40.3398 31.3095 31.3095 40.3398 20.1699 40.3398C9.03031 40.3398 0 31.3095 0 20.1699C1.64932e-05 9.03033 9.03032 0 20.1699 0ZM19.7949 10.7656C18.2005 10.7656 16.7069 11.0686 15.3145 11.6748C13.922 12.281 12.7107 13.1003 11.6797 14.1318C10.6486 15.1634 9.8295 16.3754 9.22363 17.7686C8.61782 19.1616 8.31545 20.6558 8.31543 22.251C8.31543 23.8461 8.61787 25.3403 9.22363 26.7334C9.82951 28.1266 10.6486 29.3395 11.6797 30.3711C12.7106 31.4025 13.9222 32.221 15.3145 32.8271C16.7069 33.4333 18.2005 33.7363 19.7949 33.7363C21.3893 33.7363 22.883 33.4333 24.2754 32.8271C25.6676 32.221 26.8793 31.4025 27.9102 30.3711C28.9412 29.3395 29.7594 28.1266 30.3652 26.7334C30.9711 25.3403 31.2744 23.8462 31.2744 22.251C31.2744 20.6558 30.9711 19.1617 30.3652 17.7686C29.7594 16.3755 28.9411 15.1634 27.9102 14.1318C26.8792 13.1003 25.6677 12.281 24.2754 11.6748C22.883 11.0686 21.3893 10.7656 19.7949 10.7656ZM19.7949 13.3174C22.2821 13.3174 24.3924 14.1845 26.125 15.918C27.8574 17.6514 28.7236 19.7626 28.7236 22.251C28.7236 24.7394 27.8574 26.8506 26.125 28.584C24.3924 30.3174 22.2821 31.1845 19.7949 31.1846C17.3077 31.1846 15.1974 30.3175 13.4648 28.584C11.7324 26.8505 10.8662 24.7395 10.8662 22.251C10.8662 19.7625 11.7323 17.6514 13.4648 15.918C15.1974 14.1845 17.3077 13.3174 19.7949 13.3174ZM18.5195 22.7617L23.3662 27.6113L25.1523 25.8242L21.0703 21.7402V15.8701H18.5195V22.7617ZM6.21094 14.084L7.99609 15.8701L13.417 10.4463L11.6318 8.66016L6.21094 14.084ZM26.1729 10.4463L31.5938 15.8701L33.3789 14.084L27.958 8.66016L26.1729 10.4463Z" fill="#ED951D"/>
</svg>
