<svg width="798" height="807" viewBox="0 0 798 807" fill="none" xmlns="http://www.w3.org/2000/svg">
<path d="M408.372 115.755C595.171 293.491 601.55 589.608 423.224 777.279L85.1726 455.621L408.372 115.755Z" fill="#EB3333"/>
<path fill-rule="evenodd" clip-rule="evenodd" d="M536.901 701.41C647.392 502.862 614.608 247.292 442.757 83.1293C426.724 67.8717 409.957 53.7039 392.525 40.9909L385.117 48.6799C402.549 61.3929 419.316 75.5607 435.348 90.8184C603.211 251.021 635.596 499.66 528.994 693.855L536.901 701.41Z" fill="#3B3393"/>
<path d="M160.45 444.11C209.15 476.969 275.268 464.127 308.127 415.426C340.986 366.725 328.143 300.607 279.443 267.748C230.742 234.889 164.624 247.732 131.765 296.433C98.9063 345.134 111.749 411.251 160.45 444.11Z" fill="#3B3393"/>
</svg>
