<svg class="map__scheme" width="1522" height="836" viewBox="0 0 1522 836" fill="none" xmlns="http://www.w3.org/2000/svg">
    <g id="Group 37585">
        <g class="figure figure_14" id="figure 14">
            <rect id="Rectangle 401" x="672.214" y="469.769" width="15.1658" height="14.4355" fill="white" stroke="#EB3333" stroke-width="3.09235" />
            <path
                id="14"
                d="M676.468 474.126V472.889H678.324V481.548H677.025V474.126H676.468ZM682.716 481.548H681.417V479.94H679.252V478.827L680.959 472.889H682.32L680.65 478.703H681.417V477.59L682.716 477.342V478.703H683.211V479.94H682.716V481.548Z"
                fill="#EB3333"
            />
        </g>
        <g class="figure figure_8"  id="figure 8">
            <rect id="Rectangle 401_2" x="768.613" y="318.453" width="15.1658" height="14.4355" fill="white" stroke="#EB3333" stroke-width="3.09235" />
            <path
                id="8"
                d="M778.005 326.496V329.662C778.005 329.996 777.782 330.231 777.436 330.231H775.049C774.702 330.231 774.48 329.996 774.48 329.662V326.496C774.48 325.989 774.715 325.667 775.098 325.531C774.715 325.395 774.48 325.061 774.48 324.566V322.142C774.48 321.808 774.702 321.573 775.049 321.573H777.436C777.782 321.573 778.005 321.808 778.005 322.142V324.566C778.005 325.061 777.77 325.395 777.374 325.531C777.77 325.667 778.005 325.989 778.005 326.496ZM776.706 326.15H775.778V328.995H776.706V326.15ZM775.778 324.913H776.706V322.81H775.778V324.913Z"
                fill="#EB3333"
            />
        </g>
        <g class="figure figure_9"  id="figure 9">
            <rect id="Rectangle 401_3" x="768.613" y="339.285" width="15.1658" height="14.4355" fill="white" stroke="#EB3333" stroke-width="3.09235" />
            <path
                id="9"
                d="M775.778 346.116H776.706V343.642H775.778V346.116ZM774.48 346.784V342.974C774.48 342.64 774.702 342.405 775.049 342.405H777.436C777.782 342.405 778.005 342.64 778.005 342.974V350.495C778.005 350.829 777.782 351.064 777.436 351.064H775.049C774.702 351.064 774.48 350.829 774.48 350.495V348.219H775.778V349.827H776.706V347.353H775.049C774.702 347.353 774.48 347.118 774.48 346.784Z"
                fill="#EB3333"
            />
        </g>
        <g class="figure figure_16"  id="figure 16">
            <rect id="Rectangle 401_4" x="700.846" y="421.009" width="15.1658" height="14.4355" fill="white" stroke="#EB3333" stroke-width="3.09235" />
            <path
                id="16"
                d="M705.198 425.366V424.129H707.053V432.788H705.754V425.366H705.198ZM710.332 428.706H709.404V431.551H710.332V428.706ZM711.631 424.698V426.603H710.332V425.366H709.404V427.469H711.062C711.408 427.469 711.631 427.704 711.631 428.038V432.219C711.631 432.553 711.408 432.788 711.062 432.788H708.675C708.328 432.788 708.106 432.553 708.106 432.219V424.698C708.106 424.364 708.328 424.129 708.675 424.129H711.062C711.408 424.129 711.631 424.364 711.631 424.698Z"
                fill="#EB3333"
            />
        </g>
        <g class="figure figure_19"  id="figure 19">
            <rect id="Rectangle 401_5" x="531.569" y="320.616" width="15.1658" height="38.6052" fill="white" stroke="#EB3333" stroke-width="3.09235" />
            <path
                id="19"
                d="M535.92 336.936V335.699H537.776V344.357H536.477V336.936H535.92ZM540.127 339.41H541.055V336.936H540.127V339.41ZM538.828 340.078V336.268C538.828 335.934 539.051 335.699 539.397 335.699H541.784C542.131 335.699 542.353 335.934 542.353 336.268V343.788C542.353 344.122 542.131 344.357 541.784 344.357H539.397C539.051 344.357 538.828 344.122 538.828 343.788V341.512H540.127V343.12H541.055V340.647H539.397C539.051 340.647 538.828 340.412 538.828 340.078Z"
                fill="#EB3333"
            />
        </g>
        <g class="figure figure_11"  id="figure 11-2">
            <rect id="Rectangle 386" x="541.932" y="410.112" width="14.0186" height="13.3435" fill="white" stroke="#EB3333" stroke-width="2.85843" />
            <path id="11" d="M546.64 413.776V412.633H548.355V420.636H547.155V413.776H546.64ZM549.214 413.776V412.633H550.929V420.636H549.728V413.776H549.214Z" fill="#EB3333" />
        </g>
        <g class="figure figure_12"  id="figure 12">
            <rect id="Rectangle 386_2" x="557.522" y="429.233" width="14.0186" height="13.3435" fill="white" stroke="#EB3333" stroke-width="2.85843" />
            <path
                id="12"
                d="M561.487 432.897V431.754H563.202V439.757H562.002V432.897H561.487ZM567.377 432.28V434.201L565.319 438.26V438.614H567.377V439.757H564.118V438.099L566.176 434.04V432.897H565.319V434.04H564.118V432.28C564.118 431.971 564.324 431.754 564.644 431.754H566.851C567.171 431.754 567.377 431.971 567.377 432.28Z"
                fill="#EB3333"
            />
        </g>
        <g class="figure figure_11"  id="figure 11-1">
            <rect id="Rectangle 386_3" x="580.13" y="441.057" width="14.0186" height="13.3435" fill="white" stroke="#EB3333" stroke-width="2.85843" />
            <path id="11_2" d="M584.839 444.721V443.577H586.554V451.581H585.353V444.721H584.839ZM587.412 444.721V443.577H589.127V451.581H587.927V444.721H587.412Z" fill="#EB3333" />
        </g>
        <g class="figure figure_17"  id="figure 17">
            <rect id="Rectangle 386_4" x="587.007" y="414.215" width="14.0186" height="13.3435" fill="white" stroke="#EB3333" stroke-width="2.85843" />
            <path id="17" d="M591.174 417.88V416.736H592.889V424.74H591.689V417.88H591.174ZM594.64 424.74V421.081L595.6 417.88H593.633V416.736H596.835V417.765L595.84 421.081V424.74H594.64Z" fill="#EB3333" />
        </g>
        <g class="figure figure_25"  id="figure 25">
            <rect id="Rectangle 386_5" x="609.658" y="425.09" width="14.0186" height="13.3435" fill="white" stroke="#EB3333" stroke-width="2.85843" />
            <path
                id="25"
                d="M616.142 428.137V430.058L614.083 434.117V434.471H616.142V435.615H612.883V433.957L614.941 429.898V428.755H614.083V429.898H612.883V428.137C612.883 427.828 613.089 427.611 613.409 427.611H615.616C615.936 427.611 616.142 427.828 616.142 428.137ZM619.057 431.384H618.199V431.842H616.999V427.611H620.2V428.755H618.199V430.241H619.731C620.051 430.241 620.257 430.458 620.257 430.767V435.089C620.257 435.398 620.051 435.615 619.731 435.615H617.525C617.204 435.615 616.999 435.398 616.999 435.089V432.985H618.199V434.471H619.057V431.384Z"
                fill="#EB3333"
            />
        </g>
        <g class="figure figure_3"  id="figure 3-1">
            <rect id="Rectangle 386_6" x="681.099" y="429.788" width="14.0186" height="13.3435" fill="white" stroke="#EB3333" stroke-width="2.85843" />
            <path
                id="3"
                d="M689.142 440.312H686.936C686.616 440.312 686.41 440.095 686.41 439.787V437.683H687.61V439.169H688.468V436.334H687.267V435.27L688.354 433.452H686.467V432.309H689.611V433.338L688.514 435.19H689.142C689.463 435.19 689.668 435.407 689.668 435.716V439.787C689.668 440.095 689.463 440.312 689.142 440.312Z"
                fill="#EB3333"
            />
        </g>
        <g class="figure figure_24"  id="figure 24-1">
            <rect id="Rectangle 386_7" x="687.796" y="603.247" width="14.0186" height="13.3435" fill="white" stroke="#EB3333" stroke-width="2.85843" />
            <path
                id="24"
                d="M694.19 606.294V608.215L692.132 612.274V612.628H694.19V613.771H690.932V612.114L692.99 608.055V606.911H692.132V608.055H690.932V606.294C690.932 605.985 691.138 605.768 691.458 605.768H693.664C693.985 605.768 694.19 605.985 694.19 606.294ZM698.135 613.771H696.934V612.285H694.933V611.256L696.511 605.768H697.769L696.225 611.142H696.934V610.113L698.135 609.884V611.142H698.592V612.285H698.135V613.771Z"
                fill="#EB3333"
            />
        </g>
        <g class="figure figure_24"  id="figure 24-2">
            <rect id="Rectangle 386_8" x="615.208" y="603.247" width="14.0186" height="13.3435" fill="white" stroke="#EB3333" stroke-width="2.85843" />
            <path
                id="24_2"
                d="M621.602 606.294V608.215L619.543 612.274V612.628H621.602V613.771H618.343V612.114L620.401 608.055V606.911H619.543V608.055H618.343V606.294C618.343 605.985 618.549 605.768 618.869 605.768H621.076C621.396 605.768 621.602 605.985 621.602 606.294ZM625.546 613.771H624.345V612.285H622.344V611.256L623.922 605.768H625.18L623.636 611.142H624.345V610.113L625.546 609.884V611.142H626.003V612.285H625.546V613.771Z"
                fill="#EB3333"
            />
        </g>
        <g class="figure figure_20"  id="figure 20">
            <rect id="Rectangle 386_9" x="808.783" y="338.476" width="14.0186" height="40.1676" fill="white" stroke="#EB3333" stroke-width="2.85843" />
            <path
                id="20"
                d="M815.267 354.042V355.963L813.208 360.022V360.376H815.267V361.52H812.008V359.862L814.066 355.803V354.659H813.208V355.803H812.008V354.042C812.008 353.733 812.214 353.516 812.534 353.516H814.741C815.061 353.516 815.267 353.733 815.267 354.042ZM817.324 360.376H818.182V354.659H817.324V360.376ZM818.856 361.52H816.65C816.329 361.52 816.124 361.302 816.124 360.994V354.042C816.124 353.733 816.329 353.516 816.65 353.516H818.856C819.176 353.516 819.382 353.733 819.382 354.042V360.994C819.382 361.302 819.176 361.52 818.856 361.52Z"
                fill="#EB3333"
            />
        </g>
        <g class="figure figure_22"  id="figure 22">
            <rect id="Rectangle 386_10" x="828.271" y="320.705" width="14.0186" height="75.7096" fill="white" stroke="#EB3333" stroke-width="2.85843" />
            <path
                id="22"
                d="M834.81 354.042V355.963L832.752 360.022V360.376H834.81V361.52H831.552V359.862L833.61 355.803V354.659H832.752V355.803H831.552V354.042C831.552 353.733 831.757 353.516 832.077 353.516H834.284C834.604 353.516 834.81 353.733 834.81 354.042ZM838.869 354.042V355.963L836.811 360.022V360.376H838.869V361.52H835.61V359.862L837.668 355.803V354.659H836.811V355.803H835.61V354.042C835.61 353.733 835.816 353.516 836.136 353.516H838.343C838.663 353.516 838.869 353.733 838.869 354.042Z"
                fill="#EB3333"
            />
        </g>
        <g class="figure figure_23"  id="figure 23">
            <rect id="Rectangle 386_11" x="789.126" y="326.136" width="14.0186" height="64.8463" fill="white" stroke="#EB3333" stroke-width="2.85843" />
            <path
                id="23"
                d="M795.609 354.042V355.963L793.551 360.022V360.376H795.609V361.52H792.35V359.862L794.408 355.803V354.659H793.551V355.803H792.35V354.042C792.35 353.733 792.556 353.516 792.876 353.516H795.083C795.403 353.516 795.609 353.733 795.609 354.042ZM799.199 361.52H796.992C796.672 361.52 796.466 361.302 796.466 360.994V358.89H797.666V360.376H798.524V357.541H797.323V356.477L798.41 354.659H796.523V353.516H799.667V354.545L798.57 356.397H799.199C799.519 356.397 799.725 356.614 799.725 356.923V360.994C799.725 361.302 799.519 361.52 799.199 361.52Z"
                fill="#EB3333"
            />
        </g>
        <g class="figure figure_13"  id="figure 13">
            <rect id="Rectangle 386_12" x="727.374" y="405.517" width="14.0186" height="13.3435" fill="white" stroke="#EB3333" stroke-width="2.85843" />
            <path
                id="13"
                d="M731.284 409.181V408.037H732.999V416.041H731.798V409.181H731.284ZM736.704 416.041H734.497C734.177 416.041 733.971 415.824 733.971 415.515V413.411H735.172V414.898H736.029V412.062H734.829V410.999L735.915 409.181H734.029V408.037H737.173V409.066L736.075 410.919H736.704C737.024 410.919 737.23 411.136 737.23 411.445V415.515C737.23 415.824 737.024 416.041 736.704 416.041Z"
                fill="#EB3333"
            />
        </g>
        <g class="figure figure_10"  id="figure 10">
            <rect id="Rectangle 386_13" x="559.682" y="390.389" width="14.0186" height="13.3435" fill="white" stroke="#EB3333" stroke-width="2.85843" />
            <path
                id="10"
                d="M563.592 394.053V392.909H565.307V400.913H564.106V394.053H563.592ZM567.48 399.77H568.338V394.053H567.48V399.77ZM569.012 400.913H566.805C566.485 400.913 566.28 400.696 566.28 400.387V393.435C566.28 393.127 566.485 392.909 566.805 392.909H569.012C569.332 392.909 569.538 393.127 569.538 393.435V400.387C569.538 400.696 569.332 400.913 569.012 400.913Z"
                fill="#EB3333"
            />
        </g>
        <g class="figure figure_7"  id="figure 7">
            <rect id="Rectangle 409" x="631.537" y="424.496" width="41.4745" height="18.7072" transform="rotate(-0.264777 631.537 424.496)" fill="white" stroke="#EB3333" stroke-width="4.2342" />
            <path id="7" d="M651.811 440.192V434.772L653.233 430.03H650.32V428.336H655.063V429.86L653.589 434.772V440.192H651.811Z" fill="#EB3333" />
        </g>
        <g class="figure figure_1"  id="figure 1">
            <rect id="Rectangle 409_2" x="2.12698" y="2.10741" width="41.5569" height="47.4208" transform="matrix(0.99999 -0.00456679 0.00467627 0.999989 478.668 338.778)" fill="white" stroke="#EB3333" stroke-width="4.2342" />
            <path id="1" d="M500.514 360.892V359.198H503.055V371.054H501.276V360.892H500.514Z" fill="#EB3333" />
        </g>
        <g class="figure figure_26"  id="figure 26">
            <path
                class="rect"
                id="Rectangle 409_3"
                d="M623.03 303.154L692.096 303.042C709.075 303.015 723.021 316.757 723.247 333.734C723.472 350.712 709.892 364.498 692.913 364.525L623.847 364.636C606.869 364.664 592.923 350.921 592.697 333.944C592.472 316.968 606.052 303.181 623.03 303.154Z"
                fill="white"
                stroke="#EB3333"
                stroke-width="4.2342"
            />
            <path
                id="26"
                d="M661.739 327.638V330.483L658.69 336.496V337.021H661.739V338.714H656.912V336.259L659.961 330.246V328.552H658.69V330.246H656.912V327.638C656.912 327.18 657.217 326.859 657.691 326.859H660.96C661.434 326.859 661.739 327.18 661.739 327.638ZM666.057 333.125H664.787V337.021H666.057V333.125ZM667.835 327.638V330.246H666.057V328.552H664.787V331.432H667.056C667.531 331.432 667.835 331.753 667.835 332.211V337.935C667.835 338.393 667.531 338.714 667.056 338.714H663.788C663.313 338.714 663.008 338.393 663.008 337.935V327.638C663.008 327.18 663.313 326.859 663.788 326.859H667.056C667.531 326.859 667.835 327.18 667.835 327.638Z"
                fill="#EB3333"
            />
        </g>
        <g class="figure figure_2" id="figure 2">
            <rect id="Rectangle 389" x="470.811" y="433.123" width="23.3078" height="38.5998" transform="rotate(-30.2621 470.811 433.123)" fill="white" stroke="#EB3333" stroke-width="4.2342" />
            <path
                id="2"
                d="M492.794 439.286V442.131L489.745 448.144V448.669H492.794V450.362H487.967V447.906L491.015 441.894V440.2H489.745V441.894H487.967V439.286C487.967 438.828 488.271 438.507 488.746 438.507H492.014C492.489 438.507 492.794 438.828 492.794 439.286Z"
                fill="#EB3333"
            />
        </g>
        <g class="figure figure_3" id="figure 3-2">
            <rect id="Rectangle 389_2" x="532.893" y="510.064" width="23.3078" height="40.5598" transform="rotate(-59.9296 532.893 510.064)" fill="white" stroke="#EB3333" stroke-width="4.2342" />
            <path
                id="3_2"
                d="M557.244 515.958H553.976C553.501 515.958 553.197 515.637 553.197 515.179V512.063H554.975V514.265H556.245V510.064H554.467V508.489L556.076 505.796H553.281V504.103H557.939V505.627L556.313 508.371H557.244C557.719 508.371 558.024 508.693 558.024 509.15V515.179C558.024 515.637 557.719 515.958 557.244 515.958Z"
                fill="#EB3333"
            />
        </g>
        <g class="figure figure_18" id="figure 18">
            <rect id="Rectangle 382" x="2.98973" y="0.160495" width="22.3529" height="22.7053" transform="matrix(0.668186 0.743995 0.743995 -0.668186 739.792 437.891)" fill="white" stroke="#EB3333" stroke-width="4.2342" />
            <path id="Vector 24" d="M721.61 452.9L732.888 446.966L742 439.5L760 423.5L768.198 414.427L772.723 404.558" stroke="#EB3333" stroke-width="4.22934" />
            <path
                id="18"
                d="M752.772 437.412V435.718H755.313V447.574H753.535V437.412H752.772ZM761.581 442.459V446.795C761.581 447.252 761.276 447.574 760.802 447.574H757.533C757.059 447.574 756.754 447.252 756.754 446.795V442.459C756.754 441.765 757.076 441.325 757.601 441.138C757.076 440.952 756.754 440.495 756.754 439.817V436.498C756.754 436.04 757.059 435.718 757.533 435.718H760.802C761.276 435.718 761.581 436.04 761.581 436.498V439.817C761.581 440.495 761.259 440.952 760.717 441.138C761.259 441.325 761.581 441.765 761.581 442.459ZM759.803 441.985H758.532V445.881H759.803V441.985ZM758.532 440.291H759.803V437.412H758.532V440.291Z"
                fill="#EB3333"
            />
        </g>
        <g class="figure figure_6" id="figure 6">
            <rect id="Rectangle 409_4" x="2.12423" y="2.10374" width="18.682" height="20.6215" transform="matrix(0.99998 -0.0063036 0.00338782 0.999994 445.993 581.628)" fill="white" stroke="#EB3333" stroke-width="4.2342" />
            <path
                id="6"
                d="M458.37 594.275H457.1V598.17H458.37V594.275ZM460.148 588.787V591.395H458.37V589.702H457.1V592.581H459.369C459.844 592.581 460.148 592.903 460.148 593.36V599.085C460.148 599.542 459.844 599.864 459.369 599.864H456.1C455.626 599.864 455.321 599.542 455.321 599.085V588.787C455.321 588.33 455.626 588.008 456.1 588.008H459.369C459.844 588.008 460.148 588.33 460.148 588.787Z"
                fill="#EB3333"
            />
        </g>
        <g class="figure figure_5" id="figure 5">
            <rect id="Rectangle 383" x="448.117" y="556.587" width="18.7658" height="20.7658" fill="white" stroke="#EB3333" stroke-width="4.2342" />
            <path
                id="5"
                d="M458.294 566.536H457.024V567.214H455.245V560.947H459.987V562.641H457.024V564.842H459.293C459.767 564.842 460.072 565.164 460.072 565.622V572.024C460.072 572.481 459.767 572.803 459.293 572.803H456.024C455.55 572.803 455.245 572.481 455.245 572.024V568.907H457.024V571.109H458.294V566.536Z"
                fill="#EB3333"
            />
        </g>
        <g class="figure figure_4" id="figure 4">
            <rect id="Rectangle 379" x="475.117" y="554.117" width="47.7658" height="53.2951" fill="white" stroke="#EB3333" stroke-width="4.2342" />
            <path id="4" d="M501.052 584.774H499.274V582.572H496.31V581.048L498.647 572.918H500.51L498.224 580.878H499.274V579.354L501.052 579.015V580.878H501.73V582.572H501.052V584.774Z" fill="#EB3333" />
        </g>
        <g class="figure figure_15" id="figure 15">
            <rect id="Rectangle 379_2" x="339.276" y="554.117" width="64.7536" height="53.2951" fill="white" stroke="#EB3333" stroke-width="4.2342" />
            <path
                id="15"
                d="M367.197 574.612V572.918H369.737V584.774H367.959V574.612H367.197ZM374.227 578.507H372.956V579.185H371.178V572.918H375.92V574.612H372.956V576.814H375.226C375.7 576.814 376.005 577.135 376.005 577.593V583.995C376.005 584.452 375.7 584.774 375.226 584.774H371.957C371.483 584.774 371.178 584.452 371.178 583.995V580.878H372.956V583.08H374.227V578.507Z"
                fill="#EB3333"
            />
        </g>
        <g class="figure figure_21" id="figure 21">
            <rect id="Rectangle 378" x="647.623" y="490.236" width="21.2596" height="47.5285" fill="white" stroke="#EB3333" stroke-width="4.2342" />
            <path
                id="21"
                d="M658.538 508.435V511.28L655.489 517.293V517.818H658.538V519.511H653.711V517.055L656.759 511.043V509.349H655.489V511.043H653.711V508.435C653.711 507.977 654.016 507.655 654.49 507.655H657.759C658.233 507.655 658.538 507.977 658.538 508.435ZM659.638 509.349V507.655H662.179V519.511H660.4V509.349H659.638Z"
                fill="#EB3333"
            />
        </g>
    </g>
</svg>
