<svg class="map__scheme" width="1522" height="836" viewBox="0 0 1522 836" fill="none" xmlns="http://www.w3.org/2000/svg">
    <g id="Group 37585">
        <g class="figure figure_12" id="figure 12">
            <rect id="Rectangle 386" x="644.117" y="564.117" width="28.7658" height="23.7658" fill="white" stroke="#EB3333" stroke-width="4.2342" />
            <path
                id="12"
                d="M653.992 572.107V570.413H656.533V582.269H654.755V572.107H653.992ZM662.716 571.192V574.038L659.668 580.05V580.575H662.716V582.269H657.889V579.813L660.938 573.801V572.107H659.668V573.801H657.889V571.192C657.889 570.735 658.194 570.413 658.668 570.413H661.937C662.411 570.413 662.716 570.735 662.716 571.192Z"
                fill="#EB3333"
            />
        </g>
        <g class="figure figure_24" id="figure 24">
            <rect id="Rectangle 394" x="338.117" y="554.117" width="82.7658" height="55.7658" fill="white" stroke="#EB3333" stroke-width="4.2342" />
            <path
                id="24"
                d="M378.193 577.923V580.769L375.144 586.781V587.306H378.193V589H373.366V586.544L376.414 580.532V578.838H375.144V580.532H373.366V577.923C373.366 577.466 373.671 577.144 374.145 577.144H377.414C377.888 577.144 378.193 577.466 378.193 577.923ZM384.035 589H382.257V586.798H379.293V585.274L381.63 577.144H383.493L381.207 585.105H382.257V583.58L384.035 583.241V585.105H384.713V586.798H384.035V589Z"
                fill="#EB3333"
            />
        </g>
        <g class="figure figure_21" id="figure 21">
            <rect id="Rectangle 401" x="617.952" y="599.117" width="20.7658" height="19.7658" fill="white" stroke="#EB3333" stroke-width="4.2342" />
            <path
                id="21"
                d="M628.904 603.845V606.69L625.855 612.703V613.228H628.904V614.921H624.077V612.466L627.126 606.453V604.759H625.855V606.453H624.077V603.845C624.077 603.387 624.382 603.066 624.856 603.066H628.125C628.599 603.066 628.904 603.387 628.904 603.845ZM630.004 604.759V603.066H632.545V614.921H630.766V604.759H630.004Z"
                fill="#EB3333"
            />
        </g>
        <g class="figure figure_22" id="figure 22">
            <rect id="Rectangle 401_2" x="645.952" y="599.117" width="20.7658" height="19.7658" fill="white" stroke="#EB3333" stroke-width="4.2342" />
            <path
                id="22"
                d="M655.804 603.845V606.69L652.756 612.703V613.228H655.804V614.921H650.977V612.466L654.026 606.453V604.759H652.756V606.453H650.977V603.845C650.977 603.387 651.282 603.066 651.756 603.066H655.025C655.499 603.066 655.804 603.387 655.804 603.845ZM661.816 603.845V606.69L658.767 612.703V613.228H661.816V614.921H656.989V612.466L660.038 606.453V604.759H658.767V606.453H656.989V603.845C656.989 603.387 657.294 603.066 657.768 603.066H661.037C661.511 603.066 661.816 603.387 661.816 603.845Z"
                fill="#EB3333"
            />
        </g>
        <g class="figure figure_20" id="figure 20">
            <rect id="Rectangle 386_2" x="596.117" y="483.117" width="20.7658" height="69.7528" fill="white" stroke="#EB3333" stroke-width="4.2342" />
            <path
                id="20"
                d="M605.825 510.923V513.769L602.777 519.781V520.306H605.825V522H600.998V519.544L604.047 513.532V511.838H602.777V513.532H600.998V510.923C600.998 510.466 601.303 510.144 601.777 510.144H605.046C605.52 510.144 605.825 510.466 605.825 510.923ZM608.873 520.306H610.143V511.838H608.873V520.306ZM611.143 522H607.874C607.4 522 607.095 521.678 607.095 521.221V510.923C607.095 510.466 607.4 510.144 607.874 510.144H611.143C611.617 510.144 611.922 510.466 611.922 510.923V521.221C611.922 521.678 611.617 522 611.143 522Z"
                fill="#EB3333"
            />
        </g>
        <g  class="figure figure_19" id="figure 19">
            <rect id="Rectangle 386_3" x="678.117" y="456.117" width="20.7658" height="19.7658" fill="white" stroke="#EB3333" stroke-width="4.2342" />
            <path
                id="19"
                d="M683.91 461.694V460H686.45V471.856H684.672V461.694H683.91ZM689.67 465.081H690.94V461.694H689.67V465.081ZM687.891 465.996V460.779C687.891 460.322 688.196 460 688.67 460H691.939C692.413 460 692.718 460.322 692.718 460.779V471.077C692.718 471.534 692.413 471.856 691.939 471.856H688.67C688.196 471.856 687.891 471.534 687.891 471.077V467.96H689.67V470.162H690.94V466.775H688.67C688.196 466.775 687.891 466.453 687.891 465.996Z"
                fill="#EB3333"
            />
        </g>
        <g class="figure figure_14" id="figure 14">
            <rect id="Rectangle 386_4" x="618.117" y="456.117" width="20.7658" height="19.7658" fill="white" stroke="#EB3333" stroke-width="4.2342" />
            <path
                id="14"
                d="M623.777 461.694V460H626.318V471.856H624.54V461.694H623.777ZM632.332 471.856H630.553V469.654H627.589V468.13L629.927 460H631.79L629.503 467.96H630.553V466.436L632.332 466.097V467.96H633.009V469.654H632.332V471.856Z"
                fill="#EB3333"
            />
        </g>
        <g class="figure figure_18" id="figure 18">
            <rect id="Rectangle 386_5" x="649.117" y="739.117" width="20.7658" height="19.7658" fill="white" stroke="#EB3333" stroke-width="4.2342" />
            <path
                id="18"
                d="M654.91 744.694V743H657.45V754.856H655.672V744.694H654.91ZM663.718 749.741V754.077C663.718 754.534 663.413 754.856 662.939 754.856H659.67C659.196 754.856 658.891 754.534 658.891 754.077V749.741C658.891 749.047 659.213 748.606 659.738 748.42C659.213 748.234 658.891 747.776 658.891 747.099V743.779C658.891 743.322 659.196 743 659.67 743H662.939C663.413 743 663.718 743.322 663.718 743.779V747.099C663.718 747.776 663.396 748.234 662.854 748.42C663.396 748.606 663.718 749.047 663.718 749.741ZM661.94 749.267H660.67V753.162H661.94V749.267ZM660.67 747.573H661.94V744.694H660.67V747.573Z"
                fill="#EB3333"
            />
        </g>
        <g class="figure figure_17" id="figure 17">
            <rect id="Rectangle 386_6" x="649.117" y="714.117" width="20.7658" height="19.7658" fill="white" stroke="#EB3333" stroke-width="4.2342" />
            <path id="17" d="M655.29 719.694V718H657.831V729.856H656.052V719.694H655.29ZM660.423 729.856V724.436L661.846 719.694H658.933V718H663.675V719.524L662.202 724.436V729.856H660.423Z" fill="#EB3333" />
        </g>
        <g class="figure figure_16" id="figure 16">
            <rect id="Rectangle 409" x="648.635" y="690.218" width="21.1366" height="18.7072" transform="rotate(-0.264777 648.635 690.218)" fill="white" stroke="#EB3333" stroke-width="4.2342" />
            <path
                id="16"
                d="M654.91 694.799V693.106H657.45V704.961H655.672V694.799H654.91ZM661.94 699.372H660.67V703.268H661.94V699.372ZM663.718 693.885V696.493H661.94V694.799H660.67V697.679H662.939C663.413 697.679 663.718 698 663.718 698.458V704.182C663.718 704.64 663.413 704.961 662.939 704.961H659.67C659.196 704.961 658.891 704.64 658.891 704.182V693.885C658.891 693.427 659.196 693.106 659.67 693.106H662.939C663.413 693.106 663.718 693.427 663.718 693.885Z"
                fill="#EB3333"
            />
        </g>
        <g class="figure figure_15" id="figure 15">
            <rect id="Rectangle 409_2" x="648.635" y="665.224" width="21.1366" height="18.7072" transform="rotate(-0.264777 648.635 665.224)" fill="white" stroke="#EB3333" stroke-width="4.2342" />
            <path
                id="15"
                d="M654.91 669.806V668.112H657.45V679.968H655.672V669.806H654.91ZM661.94 673.701H660.67V674.379H658.891V668.112H663.633V669.806H660.67V672.007H662.939C663.413 672.007 663.718 672.329 663.718 672.787V679.189C663.718 679.646 663.413 679.968 662.939 679.968H659.67C659.196 679.968 658.891 679.646 658.891 679.189V676.072H660.67V678.274H661.94V673.701Z"
                fill="#EB3333"
            />
        </g>
        <g class="figure figure_7" id="figure 7">
            <rect id="Rectangle 409_3" x="633.312" y="428.294" width="53.337" height="18.7072" transform="rotate(-0.264777 633.312 428.294)" fill="white" stroke="#EB3333" stroke-width="4.2342" />
            <path id="8" d="M659.517 443.961V438.542L660.94 433.799H658.027V432.106H662.769V433.63L661.296 438.542V443.961H659.517Z" fill="#EB3333" />
        </g>
        <g class="figure figure_11" id="figure 11">
            <rect id="Rectangle 409_4" x="595.548" y="414.742" width="27.6493" height="18.7072" transform="rotate(21.3352 595.548 414.742)" fill="white" stroke="#EB3333" stroke-width="4.2342" />
            <path id="11" d="M601.714 424.762V423.068H604.255V434.924H602.477V424.762H601.714ZM605.526 424.762V423.068H608.067V434.924H606.289V424.762H605.526Z" fill="#EB3333" />
        </g>
        <g class="figure figure_8" id="figure 8">
            <rect id="Rectangle 409_5" x="-1.20176" y="2.74226" width="27.6493" height="18.7072" transform="matrix(-0.931468 0.363824 0.363824 0.931468 725.379 412.625)" fill="white" stroke="#EB3333" stroke-width="4.2342" />
            <path
                id="8_2"
                d="M720.442 429.809V434.145C720.442 434.602 720.138 434.924 719.663 434.924H716.395C715.92 434.924 715.615 434.602 715.615 434.145V429.809C715.615 429.115 715.937 428.674 716.462 428.488C715.937 428.302 715.615 427.844 715.615 427.167V423.847C715.615 423.39 715.92 423.068 716.395 423.068H719.663C720.138 423.068 720.442 423.39 720.442 423.847V427.167C720.442 427.844 720.121 428.302 719.579 428.488C720.121 428.674 720.442 429.115 720.442 429.809ZM718.664 429.335H717.394V433.23H718.664V429.335ZM717.394 427.641H718.664V424.762H717.394V427.641Z"
                fill="#EB3333"
            />
        </g>
        <g class="figure figure_25" id="figure 25">
            <rect id="Rectangle 389" x="770.009" y="471.923" width="23.3078" height="37.0549" transform="rotate(-41.4898 770.009 471.923)" fill="white" stroke="#EB3333" stroke-width="4.2342" />
            <path
                id="25"
                d="M789.726 472.779V475.624L786.677 481.637V482.162H789.726V483.855H784.899V481.4L787.947 475.387V473.693H786.677V475.387H784.899V472.779C784.899 472.321 785.204 472 785.678 472H788.947C789.421 472 789.726 472.321 789.726 472.779ZM794.044 477.589H792.774V478.266H790.995V472H795.738V473.693H792.774V475.895H795.043C795.518 475.895 795.822 476.217 795.822 476.674V483.076C795.822 483.534 795.518 483.855 795.043 483.855H791.775C791.3 483.855 790.995 483.534 790.995 483.076V479.96H792.774V482.162H794.044V477.589Z"
                fill="#EB3333"
            />
        </g>
        <g class="figure figure_9" id="figure 9">
            <rect id="Rectangle 389_2" x="470.811" y="433.123" width="23.3078" height="38.5998" transform="rotate(-30.2621 470.811 433.123)" fill="white" stroke="#EB3333" stroke-width="4.2342" />
            <path
                id="9"
                d="M489.747 443.588H491.017V440.2H489.747V443.588ZM487.969 444.502V439.286C487.969 438.828 488.273 438.507 488.748 438.507H492.016C492.491 438.507 492.796 438.828 492.796 439.286V449.583C492.796 450.041 492.491 450.362 492.016 450.362H488.748C488.273 450.362 487.969 450.041 487.969 449.583V446.467H489.747V448.669H491.017V445.281H488.748C488.273 445.281 487.969 444.959 487.969 444.502Z"
                fill="#EB3333"
            />
        </g>
        <g class="figure figure_10" id="figure 10">
            <rect id="Rectangle 389_3" x="535.146" y="511.854" width="23.3078" height="38.5998" transform="rotate(-59.9296 535.146 511.854)" fill="white" stroke="#EB3333" stroke-width="4.2342" />
            <path
                id="10"
                d="M552.978 507.718V506.025H555.519V517.88H553.74V507.718H552.978ZM558.738 516.187H560.008V507.718H558.738V516.187ZM561.007 517.88H557.739C557.264 517.88 556.96 517.559 556.96 517.101V506.804C556.96 506.346 557.264 506.025 557.739 506.025H561.007C561.482 506.025 561.787 506.346 561.787 506.804V517.101C561.787 517.559 561.482 517.88 561.007 517.88Z"
                fill="#EB3333"
            />
        </g>
        <g class="figure figure_6" id="figure 6">
            <rect id="Rectangle 382" x="2.98973" y="0.160495" width="22.3529" height="22.7053" transform="matrix(0.668186 0.743995 0.743995 -0.668186 739.792 437.891)" fill="white" stroke="#EB3333" stroke-width="4.2342" />
            <path id="Vector 24" d="M721.61 452.9L732.888 446.966L742 439.5L760 423.5L768.198 414.427L772.723 404.558" stroke="#EB3333" stroke-width="4.22934" />
            <path
                id="6"
                d="M757.897 441.985H756.626V445.881H757.897V441.985ZM759.675 436.498V439.106H757.897V437.412H756.626V440.291H758.896C759.37 440.291 759.675 440.613 759.675 441.07V446.795C759.675 447.252 759.37 447.574 758.896 447.574H755.627C755.153 447.574 754.848 447.252 754.848 446.795V436.498C754.848 436.04 755.153 435.718 755.627 435.718H758.896C759.37 435.718 759.675 436.04 759.675 436.498Z"
                fill="#EB3333"
            />
        </g>
        <g class="figure figure_13" id="figure 13">
            <rect id="Rectangle 382_2" x="573.818" y="439.45" width="22.3529" height="22.7053" transform="rotate(131.927 573.818 439.45)" fill="white" stroke="#EB3333" stroke-width="4.2342" />
            <path id="Vector 24_2" d="M594.118 452.342L582.84 446.408L573.728 438.942L555.728 422.942L547.529 413.868L543.005 404" stroke="#EB3333" stroke-width="4.22934" />
            <path
                id="13"
                d="M553.982 436.854V435.16H556.522V447.016H554.744V436.854H553.982ZM562.011 447.016H558.743C558.268 447.016 557.963 446.694 557.963 446.237V443.121H559.742V445.322H561.012V441.122H559.234V439.547L560.843 436.854H558.048V435.16H562.706V436.685L561.08 439.428H562.011C562.486 439.428 562.79 439.75 562.79 440.208V446.237C562.79 446.694 562.486 447.016 562.011 447.016Z"
                fill="#EB3333"
            />
        </g>
        <g class="figure figure_23" id="figure 23">
            <rect id="Rectangle 400" x="772.72" y="492.172" width="21.1714" height="40.538" transform="rotate(59.8783 772.72 492.172)" fill="white" stroke="#EB3333" stroke-width="4.2342" />
            <path
                id="23"
                d="M759.325 506.923V509.769L756.277 515.781V516.306H759.325V518H754.498V515.544L757.547 509.532V507.838H756.277V509.532H754.498V506.923C754.498 506.466 754.803 506.144 755.277 506.144H758.546C759.02 506.144 759.325 506.466 759.325 506.923ZM764.643 518H761.374C760.9 518 760.595 517.678 760.595 517.221V514.105H762.373V516.306H763.643V512.106H761.865V510.531L763.474 507.838H760.679V506.144H765.337V507.669L763.711 510.412H764.643C765.117 510.412 765.422 510.734 765.422 511.191V517.221C765.422 517.678 765.117 518 764.643 518Z"
                fill="#EB3333"
            />
        </g>
        <g class="figure figure_5" id="figure 5">
            <rect id="Rectangle 398" x="697.117" y="546.57" width="15.7658" height="57.3132" fill="white" stroke="#EB3333" stroke-width="4.2342" />
            <path
                id="5"
                d="M705.112 574.636H703.842V575.313H702.063V569.047H706.805V570.74H703.842V572.942H706.111C706.585 572.942 706.89 573.264 706.89 573.721V580.123C706.89 580.581 706.585 580.902 706.111 580.902H702.842C702.368 580.902 702.063 580.581 702.063 580.123V577.007H703.842V579.209H705.112V574.636Z"
                fill="#EB3333"
            />
        </g>
        <g class="figure figure_10" id="figure 10-2">
            <rect id="Rectangle 398_2" x="697.117" y="483.117" width="15.7658" height="57.3132" fill="white" stroke="#EB3333" stroke-width="4.2342" />
            <path
                id="10_2"
                d="M699.988 507.288V505.594H702.528V517.45H700.75V507.288H699.988ZM705.748 515.757H707.018V507.288H705.748V515.757ZM708.017 517.45H704.748C704.274 517.45 703.969 517.128 703.969 516.671V506.374C703.969 505.916 704.274 505.594 704.748 505.594H708.017C708.491 505.594 708.796 505.916 708.796 506.374V516.671C708.796 517.128 708.491 517.45 708.017 517.45Z"
                fill="#EB3333"
            />
        </g>
        <g class="figure figure_4" id="figure 4">
            <rect id="Rectangle 409_6" x="2.12423" y="2.10374" width="18.682" height="20.6215" transform="matrix(0.99998 -0.0063036 0.00338782 0.999994 445.993 579.158)" fill="white" stroke="#EB3333" stroke-width="4.2342" />
            <path id="4" d="M459.762 597.394H457.984V595.192H455.02V593.668L457.357 585.538H459.22L456.934 593.499H457.984V591.974L459.762 591.636V593.499H460.439V595.192H459.762V597.394Z" fill="#EB3333" />
        </g>
        <g class="figure figure_3" id="figure 3">
            <rect id="Rectangle 383" x="448.117" y="554.117" width="18.7658" height="20.7658" fill="white" stroke="#EB3333" stroke-width="4.2342" />
            <path
                id="3"
                d="M459.293 570.333H456.024C455.55 570.333 455.245 570.011 455.245 569.554V566.438H457.024V568.639H458.294V564.439H456.515V562.864L458.124 560.171H455.33V558.477H459.987V560.002L458.362 562.745H459.293C459.767 562.745 460.072 563.067 460.072 563.524V569.554C460.072 570.011 459.767 570.333 459.293 570.333Z"
                fill="#EB3333"
            />
        </g>
        <g class="figure figure_2" id="figure 2">
            <rect id="Rectangle 379" x="475.117" y="554.117" width="47.7658" height="38.7658" fill="white" stroke="#EB3333" stroke-width="4.2342" />
            <path
                id="2"
                d="M501.437 568.451V571.296L498.388 577.309V577.834H501.437V579.527H496.61V577.072L499.658 571.059V569.365H498.388V571.059H496.61V568.451C496.61 567.993 496.915 567.672 497.389 567.672H500.658C501.132 567.672 501.437 567.993 501.437 568.451Z"
                fill="#EB3333"
            />
        </g>
        <g class="figure figure_1" id="figure 1">
            <rect id="Rectangle 378" x="647.623" y="471.117" width="21.2596" height="85.7658" fill="white" stroke="#EB3333" stroke-width="4.2342" />
            <path id="1" d="M656.632 511.511V509.817H659.173V521.673H657.394V511.511H656.632Z" fill="#EB3333" />
        </g>
    </g>
</svg>
