<svg class="map__scheme" width="1522" height="836" viewBox="0 0 1522 836" fill="none" xmlns="http://www.w3.org/2000/svg">
    <g class="" id="Group 37585">
        <g class="figure figure_12" id="figure 12">
            <rect id="Rectangle 386" x="648.117" y="564.117" width="20.7658" height="23.7658" fill="white" stroke="#EB3333" stroke-width="4.2342" />
            <path
                id="12"
                d="M654.018 572.107V570.413H656.558V582.269H654.78V572.107H654.018ZM662.741 571.192V574.038L659.693 580.05V580.575H662.741V582.269H657.914V579.813L660.963 573.801V572.107H659.693V573.801H657.914V571.192C657.914 570.735 658.219 570.413 658.693 570.413H661.962C662.436 570.413 662.741 570.735 662.741 571.192Z"
                fill="#EB3333"
            />
        </g>
        <g class="figure figure_24" id="figure 24">
            <rect id="Rectangle 394" x="338.117" y="554.117" width="82.7658" height="55.7658" fill="white" stroke="#EB3333" stroke-width="4.2342" />
            <path
                id="24"
                d="M378.193 577.923V580.769L375.144 586.781V587.306H378.193V589H373.366V586.544L376.414 580.532V578.838H375.144V580.532H373.366V577.923C373.366 577.466 373.671 577.144 374.145 577.144H377.414C377.888 577.144 378.193 577.466 378.193 577.923ZM384.035 589H382.257V586.798H379.293V585.274L381.63 577.144H383.493L381.207 585.105H382.257V583.58L384.035 583.241V585.105H384.713V586.798H384.035V589Z"
                fill="#EB3333"
            />
        </g>
        <g class="figure figure_21" id="figure 21">
            <rect id="Rectangle 401" x="614.952" y="599.117" width="20.7658" height="19.7658" fill="white" stroke="#EB3333" stroke-width="4.2342" />
            <path
                id="21"
                d="M625.904 603.845V606.69L622.855 612.703V613.228H625.904V614.921H621.077V612.466L624.126 606.453V604.759H622.855V606.453H621.077V603.845C621.077 603.387 621.382 603.066 621.856 603.066H625.125C625.599 603.066 625.904 603.387 625.904 603.845ZM627.004 604.759V603.066H629.545V614.921H627.766V604.759H627.004Z"
                fill="#EB3333"
            />
        </g>
        <g class="figure figure_22" id="figure 22">
            <rect id="Rectangle 401_2" x="642.952" y="599.117" width="20.7658" height="19.7658" fill="white" stroke="#EB3333" stroke-width="4.2342" />
            <path
                id="22"
                d="M652.804 603.845V606.69L649.756 612.703V613.228H652.804V614.921H647.977V612.466L651.026 606.453V604.759H649.756V606.453H647.977V603.845C647.977 603.387 648.282 603.066 648.756 603.066H652.025C652.499 603.066 652.804 603.387 652.804 603.845ZM658.816 603.845V606.69L655.767 612.703V613.228H658.816V614.921H653.989V612.466L657.038 606.453V604.759H655.767V606.453H653.989V603.845C653.989 603.387 654.294 603.066 654.768 603.066H658.037C658.511 603.066 658.816 603.387 658.816 603.845Z"
                fill="#EB3333"
            />
        </g>
        <g class="figure figure_23"id="figure 23">
            <rect id="Rectangle 401_3" x="674.886" y="464.534" width="15.1658" height="14.4355" fill="white" stroke="#EB3333" stroke-width="3.09235" />
            <path
                id="23"
                d="M682.021 468.223V470.301L679.795 474.693V475.076H682.021V476.313H678.496V474.519L680.722 470.128V468.891H679.795V470.128H678.496V468.223C678.496 467.889 678.719 467.654 679.065 467.654H681.452C681.798 467.654 682.021 467.889 682.021 468.223ZM685.905 476.313H683.517C683.171 476.313 682.948 476.078 682.948 475.744V473.468H684.247V475.076H685.175V472.008H683.876V470.858L685.051 468.891H683.01V467.654H686.412V468.768L685.224 470.772H685.905C686.251 470.772 686.474 471.007 686.474 471.34V475.744C686.474 476.078 686.251 476.313 685.905 476.313Z"
                fill="#EB3333"
            />
        </g>
        <g class="figure figure_14" id="figure 14">
            <rect id="Rectangle 401_4" x="696.066" y="464.534" width="15.1658" height="14.4355" fill="white" stroke="#EB3333" stroke-width="3.09235" />
            <path
                id="14"
                d="M700.32 468.891V467.654H702.176V476.313H700.877V468.891H700.32ZM706.568 476.313H705.269V474.705H703.104V473.592L704.811 467.654H706.172L704.502 473.468H705.269V472.355L706.568 472.107V473.468H707.063V474.705H706.568V476.313Z"
                fill="#EB3333"
            />
        </g>
        <g class="figure figure_29" id="figure 29">
            <rect id="Rectangle 401_5" x="702.762" y="445.546" width="15.1658" height="14.4355" fill="white" stroke="#EB3333" stroke-width="3.09235" />
            <path
                id="29"
                d="M709.898 449.235V451.313L707.671 455.704V456.087H709.898V457.324H706.372V455.531L708.599 451.14V449.903H707.671V451.14H706.372V449.235C706.372 448.901 706.595 448.666 706.941 448.666H709.329C709.675 448.666 709.898 448.901 709.898 449.235ZM712.124 452.376H713.051V449.903H712.124V452.376ZM710.825 453.044V449.235C710.825 448.901 711.047 448.666 711.394 448.666H713.781C714.127 448.666 714.35 448.901 714.35 449.235V456.755C714.35 457.089 714.127 457.324 713.781 457.324H711.394C711.047 457.324 710.825 457.089 710.825 456.755V454.479H712.124V456.087H713.051V453.613H711.394C711.047 453.613 710.825 453.378 710.825 453.044Z"
                fill="#EB3333"
            />
        </g>
        <g class="figure figure_20" id="figure 20">
            <rect id="Rectangle 386_2" x="592.117" y="458.117" width="20.7658" height="42.7658" fill="white" stroke="#EB3333" stroke-width="4.2342" />
            <path
                id="20"
                d="M601.825 475.346V478.191L598.777 484.204V484.729H601.825V486.422H596.998V483.967L600.047 477.954V476.26H598.777V477.954H596.998V475.346C596.998 474.888 597.303 474.567 597.777 474.567H601.046C601.52 474.567 601.825 474.888 601.825 475.346ZM604.873 484.729H606.143V476.26H604.873V484.729ZM607.143 486.422H603.874C603.4 486.422 603.095 486.101 603.095 485.643V475.346C603.095 474.888 603.4 474.567 603.874 474.567H607.143C607.617 474.567 607.922 474.888 607.922 475.346V485.643C607.922 486.101 607.617 486.422 607.143 486.422Z"
                fill="#EB3333"
            />
        </g>
        <g class="figure figure_19" id="figure 19">
            <rect id="Rectangle 386_3" x="619.117" y="458.117" width="20.7658" height="19.7658" fill="white" stroke="#EB3333" stroke-width="4.2342" />
            <path
                id="19"
                d="M624.91 463.694V462H627.45V473.856H625.672V463.694H624.91ZM630.67 467.081H631.94V463.694H630.67V467.081ZM628.891 467.996V462.779C628.891 462.322 629.196 462 629.67 462H632.939C633.413 462 633.718 462.322 633.718 462.779V473.077C633.718 473.534 633.413 473.856 632.939 473.856H629.67C629.196 473.856 628.891 473.534 628.891 473.077V469.96H630.67V472.162H631.94V468.775H629.67C629.196 468.775 628.891 468.453 628.891 467.996Z"
                fill="#EB3333"
            />
        </g>
        <g class="figure figure_18" id="figure 18">
            <rect id="Rectangle 386_4" x="652.458" y="722.385" width="14.0186" height="13.3435" fill="white" stroke="#EB3333" stroke-width="2.85843" />
            <path
                id="18"
                d="M656.368 726.049V724.906H658.083V732.91H656.882V726.049H656.368ZM662.314 729.457V732.384C662.314 732.692 662.108 732.91 661.788 732.91H659.581C659.261 732.91 659.055 732.692 659.055 732.384V729.457C659.055 728.988 659.273 728.691 659.627 728.565C659.273 728.439 659.055 728.13 659.055 727.673V725.432C659.055 725.123 659.261 724.906 659.581 724.906H661.788C662.108 724.906 662.314 725.123 662.314 725.432V727.673C662.314 728.13 662.097 728.439 661.731 728.565C662.097 728.691 662.314 728.988 662.314 729.457ZM661.113 729.137H660.256V731.766H661.113V729.137ZM660.256 727.993H661.113V726.049H660.256V727.993Z"
                fill="#EB3333"
            />
        </g>
        <g class="figure figure_17" id="figure 17">
            <rect id="Rectangle 386_5" x="652.458" y="705.508" width="14.0186" height="13.3435" fill="white" stroke="#EB3333" stroke-width="2.85843" />
            <path id="17" d="M656.624 709.172V708.029H658.339V716.032H657.139V709.172H656.624ZM660.09 716.032V712.373L661.05 709.172H659.084V708.029H662.285V709.058L661.29 712.373V716.032H660.09Z" fill="#EB3333" />
        </g>
        <g class="figure figure_16" id="figure 16">
            <rect id="Rectangle 409" x="652.132" y="689.375" width="14.2689" height="12.6289" transform="rotate(-0.264777 652.132 689.375)" fill="white" stroke="#EB3333" stroke-width="2.85843" />
            <path
                id="16"
                d="M656.368 692.366V691.223H658.083V699.227H656.882V692.366H656.368ZM661.113 695.453H660.256V698.083H661.113V695.453ZM662.314 691.749V693.51H661.113V692.366H660.256V694.31H661.788C662.108 694.31 662.314 694.527 662.314 694.836V698.701C662.314 699.009 662.108 699.227 661.788 699.227H659.581C659.261 699.227 659.055 699.009 659.055 698.701V691.749C659.055 691.44 659.261 691.223 659.581 691.223H661.788C662.108 691.223 662.314 691.44 662.314 691.749Z"
                fill="#EB3333"
            />
        </g>
        <g class="figure figure_15" id="figure 15">
            <rect id="Rectangle 409_2" x="652.132" y="672.502" width="14.2689" height="12.6289" transform="rotate(-0.264777 652.132 672.502)" fill="white" stroke="#EB3333" stroke-width="2.85843" />
            <path
                id="15"
                d="M656.368 675.493V674.35H658.083V682.354H656.882V675.493H656.368ZM661.113 678.123H660.256V678.58H659.055V674.35H662.257V675.493H660.256V676.98H661.788C662.108 676.98 662.314 677.197 662.314 677.506V681.828C662.314 682.136 662.108 682.354 661.788 682.354H659.581C659.261 682.354 659.055 682.136 659.055 681.828V679.724H660.256V681.21H661.113V678.123Z"
                fill="#EB3333"
            />
        </g>
        <g class="figure figure_7" id="figure 7">
            <rect id="Rectangle 409_3" x="633.312" y="428.294" width="53.337" height="18.7072" transform="rotate(-0.264777 633.312 428.294)" fill="white" stroke="#EB3333" stroke-width="4.2342" />
            <path id="8" d="M659.517 443.961V438.542L660.94 433.799H658.027V432.106H662.769V433.63L661.296 438.542V443.961H659.517Z" fill="#EB3333" />
        </g>
        <g class="figure figure_11" id="figure 11">
            <rect id="Rectangle 409_4" x="593.548" y="411.742" width="27.6493" height="18.7072" transform="rotate(21.3352 593.548 411.742)" fill="white" stroke="#EB3333" stroke-width="4.2342" />
            <path id="11" d="M599.714 421.762V420.068H602.255V431.924H600.477V421.762H599.714ZM603.526 421.762V420.068H606.067V431.924H604.289V421.762H603.526Z" fill="#EB3333" />
        </g>
        <g class="figure figure_8" id="figure 8">
            <rect id="Rectangle 409_5" x="-1.20176" y="2.74226" width="27.6493" height="18.7072" transform="matrix(-0.931468 0.363824 0.363824 0.931468 729.379 406.625)" fill="white" stroke="#EB3333" stroke-width="4.2342" />
            <path
                id="8_2"
                d="M724.442 423.809V428.145C724.442 428.602 724.138 428.924 723.663 428.924H720.395C719.92 428.924 719.615 428.602 719.615 428.145V423.809C719.615 423.115 719.937 422.674 720.462 422.488C719.937 422.302 719.615 421.844 719.615 421.167V417.847C719.615 417.39 719.92 417.068 720.395 417.068H723.663C724.138 417.068 724.442 417.39 724.442 417.847V421.167C724.442 421.844 724.121 422.302 723.579 422.488C724.121 422.674 724.442 423.115 724.442 423.809ZM722.664 423.335H721.394V427.23H722.664V423.335ZM721.394 421.641H722.664V418.762H721.394V421.641Z"
                fill="#EB3333"
            />
        </g>
        <g class="figure figure_25" id="figure 25">
            <rect id="Rectangle 389" x="770.009" y="471.923" width="23.3078" height="37.0549" transform="rotate(-41.4898 770.009 471.923)" fill="white" stroke="#EB3333" stroke-width="4.2342" />
            <path
                id="25"
                d="M789.726 472.779V475.624L786.677 481.637V482.162H789.726V483.855H784.899V481.4L787.947 475.387V473.693H786.677V475.387H784.899V472.779C784.899 472.321 785.204 472 785.678 472H788.947C789.421 472 789.726 472.321 789.726 472.779ZM794.044 477.589H792.774V478.266H790.995V472H795.738V473.693H792.774V475.895H795.043C795.518 475.895 795.822 476.217 795.822 476.674V483.076C795.822 483.534 795.518 483.855 795.043 483.855H791.775C791.3 483.855 790.995 483.534 790.995 483.076V479.96H792.774V482.162H794.044V477.589Z"
                fill="#EB3333"
            />
        </g>
        <g class="figure figure_9" id="figure 9">
            <rect id="Rectangle 389_2" x="470.811" y="433.123" width="23.3078" height="38.5998" transform="rotate(-30.2621 470.811 433.123)" fill="white" stroke="#EB3333" stroke-width="4.2342" />
            <path
                id="9"
                d="M489.747 443.588H491.017V440.2H489.747V443.588ZM487.969 444.502V439.286C487.969 438.828 488.273 438.507 488.748 438.507H492.016C492.491 438.507 492.796 438.828 492.796 439.286V449.583C492.796 450.041 492.491 450.362 492.016 450.362H488.748C488.273 450.362 487.969 450.041 487.969 449.583V446.467H489.747V448.669H491.017V445.281H488.748C488.273 445.281 487.969 444.959 487.969 444.502Z"
                fill="#EB3333"
            />
        </g>
        <g class="figure figure_27" id="figure 27">
            <rect id="Rectangle 389_3" x="554.273" y="522.77" width="23.3078" height="18.8088" transform="rotate(-59.9296 554.273 522.77)" fill="white" stroke="#EB3333" stroke-width="4.2342" />
            <path
                id="27"
                d="M568.102 511.923V514.769L565.053 520.781V521.306H568.102V523H563.275V520.544L566.324 514.532V512.838H565.053V514.532H563.275V511.923C563.275 511.466 563.58 511.144 564.054 511.144H567.323C567.797 511.144 568.102 511.466 568.102 511.923ZM570.523 523V517.58L571.946 512.838H569.033V511.144H573.775V512.669L572.302 517.58V523H570.523Z"
                fill="#EB3333"
            />
        </g>
        <g class="figure figure_26" id="figure 26">
            <rect id="Rectangle 389_4" x="532.893" y="510.064" width="23.3078" height="18.8088" transform="rotate(-59.9296 532.893 510.064)" fill="white" stroke="#EB3333" stroke-width="4.2342" />
            <path
                id="26"
                d="M546.341 499.217V502.062L543.292 508.075V508.6H546.341V510.293H541.514V507.838L544.563 501.825V500.131H543.292V501.825H541.514V499.217C541.514 498.759 541.819 498.438 542.293 498.438H545.562C546.036 498.438 546.341 498.759 546.341 499.217ZM550.659 504.704H549.389V508.6H550.659V504.704ZM552.438 499.217V501.825H550.659V500.131H549.389V503.011H551.659C552.133 503.011 552.438 503.332 552.438 503.79V509.514C552.438 509.972 552.133 510.293 551.659 510.293H548.39C547.916 510.293 547.611 509.972 547.611 509.514V499.217C547.611 498.759 547.916 498.438 548.39 498.438H551.659C552.133 498.438 552.438 498.759 552.438 499.217Z"
                fill="#EB3333"
            />
        </g>
        <g class="figure figure_6" id="figure 6">
            <rect id="Rectangle 382" x="2.98973" y="0.160495" width="22.3529" height="22.7053" transform="matrix(0.668186 0.743995 0.743995 -0.668186 739.792 437.891)" fill="white" stroke="#EB3333" stroke-width="4.2342" />
            <path id="Vector 24" d="M721.61 452.9L732.888 446.966L742 439.5L760 423.5L768.198 414.427L772.723 404.558" stroke="#EB3333" stroke-width="4.22934" />
            <path
                id="6"
                d="M757.897 441.985H756.626V445.881H757.897V441.985ZM759.675 436.498V439.106H757.897V437.412H756.626V440.291H758.896C759.37 440.291 759.675 440.613 759.675 441.07V446.795C759.675 447.252 759.37 447.574 758.896 447.574H755.627C755.153 447.574 754.848 447.252 754.848 446.795V436.498C754.848 436.04 755.153 435.718 755.627 435.718H758.896C759.37 435.718 759.675 436.04 759.675 436.498Z"
                fill="#EB3333"
            />
        </g>
        <g class="figure figure_13" id="figure 13">
            <rect id="Rectangle 382_2" x="573.818" y="439.45" width="22.3529" height="22.7053" transform="rotate(131.927 573.818 439.45)" fill="white" stroke="#EB3333" stroke-width="4.2342" />
            <path id="Vector 24_2" d="M594.118 452.342L582.84 446.408L573.728 438.942L555.728 422.942L547.529 413.868L543.005 404" stroke="#EB3333" stroke-width="4.22934" />
            <path
                id="13"
                d="M553.982 436.854V435.16H556.522V447.016H554.744V436.854H553.982ZM562.011 447.016H558.743C558.268 447.016 557.963 446.694 557.963 446.237V443.121H559.742V445.322H561.012V441.122H559.234V439.547L560.843 436.854H558.048V435.16H562.706V436.685L561.08 439.428H562.011C562.486 439.428 562.79 439.75 562.79 440.208V446.237C562.79 446.694 562.486 447.016 562.011 447.016Z"
                fill="#EB3333"
            />
        </g>
        <g class="figure figure_28" id="figure 28">
            <rect id="Rectangle 400" x="772.72" y="492.172" width="21.1714" height="40.538" transform="rotate(59.8783 772.72 492.172)" fill="white" stroke="#EB3333" stroke-width="4.2342" />
            <path
                id="28"
                d="M759.325 506.923V509.769L756.277 515.781V516.306H759.325V518H754.498V515.544L757.547 509.532V507.838H756.277V509.532H754.498V506.923C754.498 506.466 754.803 506.144 755.277 506.144H758.546C759.02 506.144 759.325 506.466 759.325 506.923ZM765.422 512.885V517.221C765.422 517.678 765.117 518 764.643 518H761.374C760.9 518 760.595 517.678 760.595 517.221V512.885C760.595 512.191 760.917 511.75 761.442 511.564C760.917 511.378 760.595 510.92 760.595 510.243V506.923C760.595 506.466 760.9 506.144 761.374 506.144H764.643C765.117 506.144 765.422 506.466 765.422 506.923V510.243C765.422 510.92 765.1 511.378 764.558 511.564C765.1 511.75 765.422 512.191 765.422 512.885ZM763.643 512.411H762.373V516.306H763.643V512.411ZM762.373 510.717H763.643V507.838H762.373V510.717Z"
                fill="#EB3333"
            />
        </g>
        <g class="figure figure_5" id="figure 5">
            <rect id="Rectangle 398" x="701.117" y="546.57" width="15.7658" height="52.3132" fill="white" stroke="#EB3333" stroke-width="4.2342" />
            <path
                id="5"
                d="M709.112 572.649H707.842V573.327H706.063V567.06H710.805V568.754H707.842V570.956H710.111C710.585 570.956 710.89 571.278 710.89 571.735V578.137C710.89 578.594 710.585 578.916 710.111 578.916H706.842C706.368 578.916 706.063 578.594 706.063 578.137V575.021H707.842V577.222H709.112V572.649Z"
                fill="#EB3333"
            />
        </g>
        <g class="figure figure_10" id="figure 10">
            <rect id="Rectangle 398_2" x="701.117" y="486.117" width="15.7658" height="54.3132" fill="white" stroke="#EB3333" stroke-width="4.2342" />
            <path
                id="10"
                d="M703.988 509.096V507.403H706.528V519.258H704.75V509.096H703.988ZM709.748 517.565H711.018V509.096H709.748V517.565ZM712.017 519.258H708.748C708.274 519.258 707.969 518.937 707.969 518.479V508.182C707.969 507.724 708.274 507.403 708.748 507.403H712.017C712.491 507.403 712.796 507.724 712.796 508.182V518.479C712.796 518.937 712.491 519.258 712.017 519.258Z"
                fill="#EB3333"
            />
        </g>
        <g class="figure figure_4" id="figure 4">
            <rect id="Rectangle 409_6" x="2.12423" y="2.10374" width="18.682" height="20.6215" transform="matrix(0.99998 -0.0063036 0.00338782 0.999994 445.993 579.158)" fill="white" stroke="#EB3333" stroke-width="4.2342" />
            <path id="4" d="M459.762 597.394H457.984V595.192H455.02V593.668L457.357 585.538H459.22L456.934 593.499H457.984V591.974L459.762 591.636V593.499H460.439V595.192H459.762V597.394Z" fill="#EB3333" />
        </g>
        <g class="figure figure_3" id="figure 3">
            <rect id="Rectangle 383" x="448.117" y="554.117" width="18.7658" height="20.7658" fill="white" stroke="#EB3333" stroke-width="4.2342" />
            <path
                id="3"
                d="M459.293 570.333H456.024C455.55 570.333 455.245 570.011 455.245 569.554V566.438H457.024V568.639H458.294V564.439H456.515V562.864L458.124 560.171H455.33V558.477H459.987V560.002L458.362 562.745H459.293C459.767 562.745 460.072 563.067 460.072 563.524V569.554C460.072 570.011 459.767 570.333 459.293 570.333Z"
                fill="#EB3333"
            />
        </g>
        <g class="figure figure_2" id="figure 2">
            <rect id="Rectangle 379" x="475.117" y="554.117" width="47.7658" height="38.7658" fill="white" stroke="#EB3333" stroke-width="4.2342" />
            <path
                id="2"
                d="M501.437 568.451V571.296L498.388 577.309V577.834H501.437V579.527H496.61V577.072L499.658 571.059V569.365H498.388V571.059H496.61V568.451C496.61 567.993 496.915 567.672 497.389 567.672H500.658C501.132 567.672 501.437 567.993 501.437 568.451Z"
                fill="#EB3333"
            />
        </g>
        <g class="figure figure_1" id="figure 1">
            <rect id="Rectangle 378" x="647.623" y="471.117" width="21.2596" height="85.7658" fill="white" stroke="#EB3333" stroke-width="4.2342" />
            <path id="1" d="M656.632 511.511V509.817H659.173V521.673H657.394V511.511H656.632Z" fill="#EB3333" />
        </g>
    </g>
</svg>
