<svg xmlns="http://www.w3.org/2000/svg" width="41" height="41" viewBox="0 0 41 41" fill="none">
  <path fill-rule="evenodd" clip-rule="evenodd" d="M20.1699 0C31.3095 0 40.3398 9.03031 40.3398 20.1699C40.3398 31.3095 31.3095 40.3398 20.1699 40.3398C9.03042 40.3398 8.2463e-05 31.3094 0 20.1699C0 9.03036 9.03037 6.59768e-05 20.1699 0ZM19.4551 6.90723C16.644 6.90723 14.1702 7.89238 12.0342 9.86328C9.89808 11.8344 8.83008 14.4816 8.83008 17.8037C8.83014 20.0184 9.70999 22.4271 11.4697 25.0293C13.2295 27.6315 15.8914 30.4494 19.4551 33.4834C23.0187 30.4494 25.6807 27.6315 27.4404 25.0293C29.2002 22.4271 30.08 20.0184 30.0801 17.8037C30.0801 14.4816 29.0121 11.8344 26.876 9.86328C24.74 7.89232 22.2662 6.90726 19.4551 6.90723ZM19.4551 9.56445C21.6907 9.56448 23.5778 10.3348 25.1162 11.874C26.6545 13.4132 27.4238 15.3898 27.4238 17.8037C27.4238 19.3761 26.7708 21.1758 25.4648 23.2021C24.1589 25.2285 22.1554 27.4816 19.4551 29.9619C16.7547 27.4816 14.7513 25.2285 13.4453 23.2021C12.1394 21.1758 11.4864 19.3761 11.4863 17.8037C11.4863 15.3897 12.2556 13.4132 13.7939 11.874C15.3324 10.3348 17.2194 9.56445 19.4551 9.56445ZM19.4551 14.8799C18.7246 14.8799 18.0993 15.1407 17.5791 15.6611C17.059 16.1816 16.7988 16.8073 16.7988 17.5381C16.7989 18.2688 17.059 18.8947 17.5791 19.415C18.0992 19.9353 18.7247 20.1953 19.4551 20.1953C20.1854 20.1953 20.8109 19.9354 21.3311 19.415C21.8512 18.8947 22.1112 18.2688 22.1113 17.5381C22.1113 16.8073 21.8511 16.1815 21.3311 15.6611C20.8109 15.1407 20.1855 14.8799 19.4551 14.8799Z" fill="#ED951D"/>
</svg>
