<svg width="60" height="61" viewBox="0 0 60 61" fill="none" xmlns="http://www.w3.org/2000/svg">
<path fill-rule="evenodd" clip-rule="evenodd" d="M30 55.4492C43.779 55.4492 54.9492 44.279 54.9492 30.5C54.9492 16.721 43.779 5.55085 30 5.55085C16.221 5.55085 5.05085 16.721 5.05085 30.5C5.05085 44.279 16.221 55.4492 30 55.4492ZM30 60.5C46.5685 60.5 60 47.0685 60 30.5C60 13.9315 46.5685 0.5 30 0.5C13.4315 0.5 0 13.9315 0 30.5C0 47.0685 13.4315 60.5 30 60.5Z" fill="#3B3393"/>
<path d="M29.8937 15.7539L13.6226 39.1437H46.1649L29.8937 15.7539Z" fill="#3B3393"/>
</svg>
