<svg width="33" height="33" viewBox="0 0 33 33" fill="none" xmlns="http://www.w3.org/2000/svg">
<path d="M16.3438 0C25.3703 0 32.6882 7.31729 32.6885 16.3438C32.6885 25.3704 25.3704 32.6885 16.3438 32.6885C7.31719 32.6884 0 25.3703 0 16.3438C0.000235021 7.31736 7.31734 0.000119579 16.3438 0ZM16.3359 6.34473C14.9526 6.34473 13.6522 6.60684 12.4355 7.13184C11.219 7.65682 10.1607 8.36962 9.26074 9.26953C8.36086 10.1695 7.648 11.2278 7.12305 12.4443C6.59811 13.6609 6.33594 14.9615 6.33594 16.3447C6.336 17.7278 6.59817 19.0277 7.12305 20.2441C7.648 21.4607 8.36086 22.519 9.26074 23.4189C10.1607 24.3189 11.219 25.0317 12.4355 25.5566C13.6522 26.0816 14.9526 26.3447 16.3359 26.3447C17.7193 26.3447 19.0197 26.0816 20.2363 25.5566C21.4528 25.0317 22.5112 24.3189 23.4111 23.4189C24.311 22.519 25.0239 21.4607 25.5488 20.2441C26.0737 19.0277 26.3359 17.7278 26.3359 16.3447C26.3359 14.9615 26.0738 13.6609 25.5488 12.4443C25.0239 11.2278 24.311 10.1695 23.4111 9.26953C22.5112 8.36962 21.4528 7.65682 20.2363 7.13184C19.0197 6.60684 17.7193 6.34473 16.3359 6.34473ZM16.3359 8.34473C18.5692 8.34473 20.4608 9.11911 22.0107 10.6689C23.5607 12.2189 24.3359 14.1114 24.3359 16.3447C24.3358 18.5778 23.5606 20.4696 22.0107 22.0195C20.4608 23.5694 18.5692 24.3447 16.3359 24.3447C14.1027 24.3447 12.2111 23.5694 10.6611 22.0195C9.11125 20.4696 8.33605 18.5778 8.33594 16.3447C8.33594 14.1114 9.11113 12.2189 10.6611 10.6689C12.2111 9.11911 14.1027 8.34473 16.3359 8.34473ZM16.3359 19.3447C16.0526 19.3447 15.8147 19.4402 15.623 19.6318C15.4315 19.8235 15.3359 20.0615 15.3359 20.3447C15.336 20.6277 15.4317 20.8651 15.623 21.0566C15.8147 21.2483 16.0526 21.3447 16.3359 21.3447C16.6193 21.3447 16.8572 21.2483 17.0488 21.0566C17.2402 20.8651 17.3358 20.6277 17.3359 20.3447C17.3359 20.0615 17.2403 19.8235 17.0488 19.6318C16.8572 19.4402 16.6193 19.3447 16.3359 19.3447ZM15.3359 17.3447H17.3359V11.3447H15.3359V17.3447Z" fill="#EB3333"/>
</svg>
